<?xml version="1.0" encoding="UTF-8"?>
<svg version="1.1" xmlns="http://www.w3.org/2000/svg" width="820" height="253">
<path d="M0 0 C7.08583045 5.9642567 11.71079929 12.43317912 14.640625 21.22265625 C15.7346473 35.85744631 12.49913495 45.59706294 3.640625 57.22265625 C3.09792969 57.99222656 2.55523437 58.76179688 1.99609375 59.5546875 C1.48691406 60.27011719 0.97773438 60.98554688 0.453125 61.72265625 C0.00582031 62.35171875 -0.44148437 62.98078125 -0.90234375 63.62890625 C-2.57277404 65.45607932 -4.13025976 66.18153847 -6.359375 67.22265625 C-7.8753125 68.49109375 -7.8753125 68.49109375 -9.421875 69.78515625 C-12.359375 72.22265625 -12.359375 72.22265625 -15.359375 73.22265625 C-16.019375 73.88265625 -16.679375 74.54265625 -17.359375 75.22265625 C-19.1228125 75.71765625 -19.1228125 75.71765625 -20.921875 76.22265625 C-22.05625 76.55265625 -23.190625 76.88265625 -24.359375 77.22265625 C-24.689375 77.88265625 -25.019375 78.54265625 -25.359375 79.22265625 C-27.65234375 80.00390625 -27.65234375 80.00390625 -30.546875 80.72265625 C-37.62332363 82.48569603 -37.62332363 82.48569603 -44.359375 85.22265625 C-46.03 85.43921875 -46.03 85.43921875 -47.734375 85.66015625 C-51.8455268 86.28644377 -51.8455268 86.28644377 -55.359375 88.22265625 C-56.46243471 90.64320078 -56.46243471 90.64320078 -57.046875 93.47265625 C-57.27761719 94.4059375 -57.50835937 95.33921875 -57.74609375 96.30078125 C-58.36690229 99.25851876 -58.86253051 102.24158933 -59.359375 105.22265625 C-72.559375 105.22265625 -85.759375 105.22265625 -99.359375 105.22265625 C-97.109375 93.97265625 -97.109375 93.97265625 -95.734375 89.59765625 C-95.47398437 88.75976562 -95.21359375 87.921875 -94.9453125 87.05859375 C-94.75195312 86.45273438 -94.55859375 85.846875 -94.359375 85.22265625 C-95.00519531 85.196875 -95.65101563 85.17109375 -96.31640625 85.14453125 C-105.50110266 84.59169043 -114.2591962 82.68325686 -123.21435547 80.69384766 C-127.25022062 79.80729863 -131.3051995 79.02019897 -135.359375 78.22265625 C-135.359375 77.56265625 -135.359375 76.90265625 -135.359375 76.22265625 C-137.009375 76.22265625 -138.659375 76.22265625 -140.359375 76.22265625 C-140.359375 75.56265625 -140.359375 74.90265625 -140.359375 74.22265625 C-142.339375 73.56265625 -144.319375 72.90265625 -146.359375 72.22265625 C-146.359375 68.93789988 -146.03097969 68.3926161 -144.19140625 65.84375 C-143.71606445 65.17786865 -143.24072266 64.5119873 -142.75097656 63.82592773 C-141.96932129 62.75387085 -141.96932129 62.75387085 -141.171875 61.66015625 C-140.64174805 60.921604 -140.11162109 60.18305176 -139.56542969 59.42211914 C-137.83681492 57.01736443 -136.09822141 54.62002032 -134.359375 52.22265625 C-133.12831355 50.51474998 -131.89784616 48.80641535 -130.66796875 47.09765625 C-127.57267911 42.80048338 -124.46904659 38.50943089 -121.359375 34.22265625 C-114.21922408 36.3160695 -107.16928661 38.59828796 -100.1484375 41.06054688 C-90.53364437 44.34138418 -81.51232976 45.5673674 -71.359375 45.53515625 C-69.83570313 45.55932617 -69.83570313 45.55932617 -68.28125 45.58398438 C-61.72025917 45.58819014 -55.36237552 45.09485882 -49.359375 42.22265625 C-47.06923847 38.78745145 -47.18094527 37.23732525 -47.359375 33.22265625 C-52.89453165 30.95319923 -57.8474431 29.64934248 -63.77734375 29.01171875 C-65.37829818 28.81675877 -66.97920828 28.62143456 -68.58007812 28.42578125 C-71.05608555 28.13485953 -73.53251512 27.84926745 -76.01000977 27.57128906 C-92.03098107 25.74763382 -108.30857453 22.25502076 -119.796875 9.84765625 C-124.06208939 4.34614783 -127.0858824 -1.69389655 -126.359375 -8.77734375 C-120.21857154 -11.22325699 -114.01095827 -13.25631226 -107.609375 -14.90234375 C-105.79179687 -15.37027344 -105.79179687 -15.37027344 -103.9375 -15.84765625 C-70.00377417 -23.28573124 -28.69581379 -21.44828133 0 0 Z " fill="#FDC42B" transform="translate(272.359375,144.77734375)"/>
<path d="M0 0 C2.0625 0.4375 2.0625 0.4375 4 1 C5.9976054 9.44835012 7.83295169 17.91030003 9.48046875 26.43359375 C9.69818436 27.55516373 9.91589996 28.6767337 10.14021301 29.83229065 C10.59434415 32.17725371 11.04718834 34.52246635 11.4987793 36.86791992 C12.19070344 40.45410317 12.89113839 44.03856122 13.59179688 47.62304688 C14.03437535 49.91396188 14.47645064 52.20497415 14.91796875 54.49609375 C15.23195869 56.0946244 15.23195869 56.0946244 15.55229187 57.72544861 C16.4714671 62.54346017 17.28136316 67.06796255 17 72 C16.33097656 72.268125 15.66195312 72.53625 14.97265625 72.8125 C11.633819 74.17492487 8.31303497 75.576279 5 77 C4.00444092 77.42611572 4.00444092 77.42611572 2.98876953 77.86083984 C-11.746404 84.24712013 -26.8640591 92.39764379 -36.05859375 106.05859375 C-42.41199049 115.49242527 -42.41199049 115.49242527 -48.375 116.9375 C-50.58112247 117.30518708 -52.78979441 117.65771152 -55 118 C-57.97709512 118.65872507 -60.92571814 119.41451987 -63.875 120.1875 C-65.07842041 120.50207153 -65.07842041 120.50207153 -66.30615234 120.82299805 C-83.82500052 125.54250796 -102.80417213 131.86944809 -118 142 C-122.55092006 141.48042218 -125.5388686 138.38876683 -128.9375 135.5625 C-130.28693229 134.46122407 -131.63720711 133.36097979 -132.98828125 132.26171875 C-134.00075928 131.43486572 -134.00075928 131.43486572 -135.03369141 130.59130859 C-137.86048246 128.30362247 -140.73560061 126.08276562 -143.625 123.875 C-144.15279053 123.47095947 -144.68058105 123.06691895 -145.22436523 122.65063477 C-146.28497767 121.83923461 -147.34592947 121.02827786 -148.40722656 120.21777344 C-151.10971665 118.15155324 -153.80444101 116.07524884 -156.5 114 C-159.8424291 111.42796376 -163.18570457 108.85704435 -166.53125 106.2890625 C-167.40233398 105.62003906 -167.40233398 105.62003906 -168.29101562 104.9375 C-169.90209218 103.7001932 -171.51353429 102.46336243 -173.125 101.2265625 C-174.07375 100.49179688 -175.0225 99.75703125 -176 99 C-177.423125 97.95972656 -177.423125 97.95972656 -178.875 96.8984375 C-179.57625 96.27195312 -180.2775 95.64546875 -181 95 C-181 94.01 -181 93.02 -181 92 C-180.40715304 92.00959496 -179.81430609 92.01918991 -179.20349407 92.02907562 C-164.737598 92.25764149 -150.27285052 92.39672952 -135.80521679 92.43784332 C-128.8081528 92.45985591 -121.81370776 92.51146315 -114.81762695 92.63427734 C-108.06049959 92.75281178 -101.30707248 92.78683187 -94.54894447 92.7702179 C-91.97604559 92.77753165 -89.40306421 92.81277419 -86.8309536 92.87687683 C-73.74722269 93.72818626 -73.74722269 93.72818626 -61.86009407 89.4301281 C-58.33396174 85.70727725 -56.00334195 81.55025066 -53.90176392 76.90290642 C-52.65415977 74.27020633 -51.01546342 71.99550091 -49.28515625 69.66015625 C-48.75083984 68.89703125 -48.21652344 68.13390625 -47.66601562 67.34765625 C-47.13685547 66.59355469 -46.60769531 65.83945313 -46.0625 65.0625 C-45.47533203 64.22460938 -44.88816406 63.38671875 -44.28320312 62.5234375 C-40.04844419 56.48422357 -35.79724411 50.45672353 -31.53930664 44.43383789 C-27.67668855 38.96717009 -23.83581313 33.48550118 -20 28 C-15.40506706 21.43098549 -10.80458826 14.8659671 -6.1875 8.3125 C-5.67767578 7.58740234 -5.16785156 6.86230469 -4.64257812 6.11523438 C-1.11698055 1.11698055 -1.11698055 1.11698055 0 0 Z " fill="#FDC42B" transform="translate(181,3)"/>
<path d="M0 0 C0.21914062 0.76183594 0.43828125 1.52367187 0.6640625 2.30859375 C3.09160883 10.21292145 6.08541117 17.08541117 12 23 C11.73061756 26.94514924 9.265369 29.57865291 6.9375 32.625 C4.02205709 35.96447548 4.02205709 35.96447548 3 40 C1.88421145 41.08092016 0.76701724 42.16041146 -0.35546875 43.234375 C-6.85922858 49.88162242 -6.85922858 49.88162242 -10 58 C-11.66666667 59.66666667 -13.33333333 61.33333333 -15 63 C-15 63.66 -15 64.32 -15 65 C-16.62102968 66.71108689 -18.29503463 68.37253306 -20 70 C-20.50660156 70.67160156 -21.01320313 71.34320313 -21.53515625 72.03515625 C-25.33386921 75.06329035 -29.47298947 75.28125149 -34.1875 76.0625 C-62.24615267 81.37077692 -88.93848086 92.53566554 -114.63867188 104.72021484 C-115.80462891 105.27016113 -116.97058594 105.82010742 -118.171875 106.38671875 C-119.21956055 106.88776123 -120.26724609 107.38880371 -121.34667969 107.9050293 C-124 109 -124 109 -127 109 C-126.45798838 105.19269885 -125.55067718 102.97116439 -123.125 100 C-122.17560547 98.83210938 -122.17560547 98.83210938 -121.20703125 97.640625 C-120.47871094 96.76921875 -119.75039062 95.8978125 -119 95 C-118.17886719 94.00484375 -117.35773438 93.0096875 -116.51171875 91.984375 C-107.00211146 80.53882701 -96.86258366 69.77079886 -86.38516235 59.20993042 C-84.98088139 57.79374902 -83.58058509 56.37361992 -82.18041992 54.95336914 C-76.0994639 48.8647593 -69.74425927 43.3391775 -63 38 C-61.83088149 37.04698165 -60.66272071 36.09278549 -59.49609375 35.13671875 C-15.61722488 0 -15.61722488 0 0 0 Z " fill="#FDC32B" transform="translate(136,140)"/>
<path d="M0 0 C1.22763565 0.00212242 1.22763565 0.00212242 2.48007202 0.00428772 C5.09873075 0.00989335 7.71730454 0.02244677 10.3359375 0.03515625 C12.10937377 0.04017053 13.88281137 0.04473356 15.65625 0.04882812 C20.00784532 0.05986461 24.359377 0.077133 28.7109375 0.09765625 C30.07758006 4.19758393 28.81770302 6.0468499 27.2734375 10.03515625 C25.70671761 14.09496719 24.7109375 16.72178412 24.7109375 21.09765625 C25.26330078 21.16235107 25.81566406 21.2270459 26.38476562 21.29370117 C55.52430835 24.80939787 55.52430835 24.80939787 66.7109375 32.09765625 C65.19363219 36.4057918 62.9459751 40.0459132 60.4296875 43.82421875 C60.01553589 44.45371429 59.60138428 45.08320984 59.17468262 45.73178101 C57.85762048 47.73153793 56.53438768 49.72712271 55.2109375 51.72265625 C54.32120493 53.07134442 53.43187779 54.42030015 52.54296875 55.76953125 C49.6093733 60.21918617 46.66731304 64.66309294 43.7109375 69.09765625 C40.41259073 68.01028918 37.12735548 66.89455971 33.85546875 65.73046875 C26.02169865 62.98056661 18.21348416 60.56925895 10.0859375 58.84765625 C9.03369995 58.62166748 9.03369995 58.62166748 7.96020508 58.39111328 C-5.2590881 55.73860191 -18.33700246 54.75198618 -31.7890625 54.84765625 C-32.87861237 54.85031494 -32.87861237 54.85031494 -33.99017334 54.85302734 C-47.15487429 54.89046695 -60.19944146 55.6530723 -73.2890625 57.09765625 C-71.50605353 53.28265959 -69.38773197 50.99423858 -66.2890625 48.09765625 C-65.76828125 47.58332031 -65.2475 47.06898437 -64.7109375 46.5390625 C-53.1080495 35.61721357 -33.28326394 23.8932196 -17.2265625 22.91015625 C-16.2675 23.00296875 -16.2675 23.00296875 -15.2890625 23.09765625 C-15.16402344 22.10507813 -15.03898437 21.1125 -14.91015625 20.08984375 C-14.33165499 16.05355197 -13.39818749 12.16014506 -12.3515625 8.22265625 C-12.09729492 7.20945312 -12.09729492 7.20945312 -11.83789062 6.17578125 C-11.38607902 4.46473808 -10.84428579 2.77799239 -10.2890625 1.09765625 C-7.06302705 -0.51536148 -3.54196212 -0.02287974 0 0 Z M22.7109375 19.09765625 C23.7109375 21.09765625 23.7109375 21.09765625 23.7109375 21.09765625 Z " fill="#FCC32B" transform="translate(225.2890625,58.90234375)"/>
<path d="M0 0 C3.5 1.6875 3.5 1.6875 5.6875 3.5 C6.285625 3.891875 6.88375 4.28375 7.5 4.6875 C9.99898438 3.83918256 12.31547841 2.77794529 14.68359375 1.6171875 C22.58110809 -2.07835647 30.980357 -2.98916575 39.40625 -0.4296875 C46.49434396 2.79411427 50.91276982 7.1158595 54.06005859 14.19799805 C55.84311396 19.04968968 55.88334445 23.53501923 55.79296875 28.65625 C55.78872391 29.57716431 55.78447906 30.49807861 55.78010559 31.44689941 C55.76344065 34.36074245 55.72581188 37.27386939 55.6875 40.1875 C55.67243739 42.17446911 55.65875175 44.16144917 55.64648438 46.1484375 C55.61614102 50.9952831 55.55739751 55.84059906 55.5 60.6875 C48.24 60.6875 40.98 60.6875 33.5 60.6875 C33.46261719 58.14675781 33.42523438 55.60601562 33.38671875 52.98828125 C33.34046646 50.51920108 33.28924639 48.05027028 33.23754883 45.58129883 C33.20435831 43.86947762 33.17630811 42.15754852 33.15356445 40.44555664 C33.11990968 37.98016521 33.06759026 35.51575719 33.01171875 33.05078125 C33.00532883 32.28913162 32.9989389 31.52748199 32.99235535 30.74275208 C32.86945737 26.27012221 32.34152367 23.21447322 29.5 19.6875 C28.84 19.6875 28.18 19.6875 27.5 19.6875 C27.5 19.0275 27.5 18.3675 27.5 17.6875 C26.04077307 17.80159593 24.58259402 17.92915544 23.125 18.0625 C21.90683594 18.16691406 21.90683594 18.16691406 20.6640625 18.2734375 C18.29665809 18.51642588 18.29665809 18.51642588 16.5 20.6875 C16.25393985 23.69636724 16.12619218 26.61967752 16.0859375 29.6328125 C16.06657135 30.5178244 16.0472052 31.4028363 16.0272522 32.31466675 C15.96737277 35.14717916 15.92103787 37.97973203 15.875 40.8125 C15.83682789 42.73048668 15.79777662 44.64845607 15.7578125 46.56640625 C15.66000591 51.27334863 15.58050455 55.9801023 15.5 60.6875 C8.24 60.6875 0.98 60.6875 -6.5 60.6875 C-6.53738281 58.14675781 -6.57476562 55.60601562 -6.61328125 52.98828125 C-6.65953354 50.51920108 -6.71075361 48.05027028 -6.76245117 45.58129883 C-6.79564169 43.86947762 -6.82369189 42.15754852 -6.84643555 40.44555664 C-6.88009032 37.98016521 -6.93240974 35.51575719 -6.98828125 33.05078125 C-6.99467117 32.28913162 -7.0010611 31.52748199 -7.00764465 30.74275208 C-7.13054263 26.27012221 -7.65847633 23.21447322 -10.5 19.6875 C-11.16 19.6875 -11.82 19.6875 -12.5 19.6875 C-12.5 19.0275 -12.5 18.3675 -12.5 17.6875 C-15.96941546 18.14572468 -19.17395049 18.57881683 -22.5 19.6875 C-24.16349319 23.01448637 -23.74378057 26.75179385 -23.81640625 30.4140625 C-23.83718735 31.27687836 -23.85796844 32.13969421 -23.87937927 33.02865601 C-23.94486034 35.78985493 -24.00375298 38.55115038 -24.0625 41.3125 C-24.1056866 43.18230172 -24.14930093 45.05209362 -24.19335938 46.921875 C-24.30134674 51.5103191 -24.40043062 56.09883453 -24.5 60.6875 C-31.76 60.6875 -39.02 60.6875 -46.5 60.6875 C-46.5 40.8875 -46.5 21.0875 -46.5 0.6875 C-38.25 0.6875 -30 0.6875 -21.5 0.6875 C-14.49138374 -2.1159465 -7.22260331 -2.57466159 0 0 Z " fill="#0F4069" transform="translate(455.5,157.3125)"/>
<path d="M0 0 C7.26 0 14.52 0 22 0 C26.8046875 11.2109375 31.609375 22.421875 36.4140625 33.6328125 C36.67471245 34.24095039 36.9353624 34.84908829 37.20391083 35.4756546 C38.52434846 38.55649746 39.84452792 41.63745046 41.16418457 44.71862793 C43.64036375 50.49936673 46.11885612 56.27907704 48.60608292 62.05507278 C49.73388875 64.67445396 50.86041315 67.29438532 51.98683929 69.91436005 C52.78382979 71.76655806 53.58272561 73.61793586 54.38165283 75.46929932 C54.85737732 76.57610046 55.33310181 77.68290161 55.82324219 78.82324219 C56.24482605 79.80170105 56.66640991 80.78015991 57.10076904 81.78826904 C58 84 58 84 58 85 C49.75 85 41.5 85 33 85 C32.01 81.7 31.02 78.4 30 75 C29.34 74.01 28.68 73.02 28 72 C25.36751855 71.80439707 22.98767094 71.79229755 20.3671875 71.92578125 C19.61535187 71.95222214 18.86351624 71.97866302 18.08889771 72.00590515 C15.68346885 72.09379972 13.27952817 72.20289803 10.875 72.3125 C9.24614737 72.37574542 7.61724057 72.43761193 5.98828125 72.49804688 C1.99138279 72.64936074 -2.00430849 72.81969813 -6 73 C-8.475 78.94 -8.475 78.94 -11 85 C-18.92 85 -26.84 85 -35 85 C-34.23084548 81.15422741 -33.45899069 78.40553524 -31.94970703 74.88793945 C-31.52480988 73.89111649 -31.09991272 72.89429352 -30.66213989 71.86726379 C-30.19871185 70.79344955 -29.73528381 69.71963531 -29.2578125 68.61328125 C-28.77480682 67.48343307 -28.29180115 66.3535849 -27.79415894 65.1894989 C-26.24226151 61.56189079 -24.68382711 57.937135 -23.125 54.3125 C-22.1141318 51.95396952 -21.10371082 49.5952473 -20.09375 47.23632812 C-18.58354016 43.70912232 -17.07300565 40.18206054 -15.56060791 36.65579224 C-10.3298949 24.45568438 -5.16073359 12.22985684 0 0 Z M10 26 C8.46681219 29.95365973 6.95056575 33.91360053 5.4375 37.875 C4.99986328 39.00292969 4.56222656 40.13085938 4.11132812 41.29296875 C3.70205078 42.36933594 3.29277344 43.44570312 2.87109375 44.5546875 C2.29766235 46.04718018 2.29766235 46.04718018 1.71264648 47.56982422 C0.70636645 49.98009373 0.70636645 49.98009373 2 52 C7.94 52 13.88 52 20 52 C19.28821105 47.72926632 18.72243859 44.87707212 17.15234375 41.0390625 C16.79462891 40.15605469 16.43691406 39.27304688 16.06835938 38.36328125 C15.50858398 37.00783203 15.50858398 37.00783203 14.9375 35.625 C14.56044922 34.69816406 14.18339844 33.77132812 13.79492188 32.81640625 C12.86873604 30.54197521 11.93697332 28.27000333 11 26 C10.67 26 10.34 26 10 26 Z " fill="#114169" transform="translate(347,133)"/>
<path d="M0 0 C7.26 0 14.52 0 22 0 C29.045894 15.33403928 35.82342293 30.7577258 42.41625977 46.29150391 C43.95704974 49.92105218 45.5026594 53.54852146 47.04882812 57.17578125 C48.04194654 59.51029763 49.03479526 61.84492876 50.02734375 64.1796875 C50.48358627 65.2505661 50.9398288 66.3214447 51.40989685 67.42477417 C51.83787064 68.43428131 52.26584442 69.44378845 52.70678711 70.48388672 C53.07855576 71.35906952 53.4503244 72.23425232 53.83335876 73.13595581 C55.29651756 76.72793534 56.63815015 80.36840041 58 84 C50.08 84 42.16 84 34 84 C32.35 80.04 30.7 76.08 29 72 C28.34 72 27.68 72 27 72 C27 71.34 27 70.68 27 70 C15.78 70 4.56 70 -7 70 C-7.66 72.97 -8.32 75.94 -9 79 C-9.66 80.65 -10.32 82.3 -11 84 C-18.92 84 -26.84 84 -35 84 C-34.2639155 80.31957748 -33.60439847 77.74756806 -32.16503906 74.41040039 C-31.59681175 73.08324509 -31.59681175 73.08324509 -31.0171051 71.72927856 C-30.60411667 70.7783432 -30.19112823 69.82740784 -29.765625 68.84765625 C-29.3355162 67.84693085 -28.90540741 66.84620544 -28.46226501 65.81515503 C-27.06280182 62.56225533 -25.65649944 59.31236274 -24.25 56.0625 C-23.29167526 53.83879466 -22.33374982 51.61491719 -21.3762207 49.39086914 C-18.59045764 42.92451141 -15.79588657 36.46198542 -13 30 C-12.24454134 28.25231649 -11.48916384 26.5045979 -10.73388672 24.75683594 C-7.16539056 16.50042565 -3.58807896 8.24792176 0 0 Z M10 25 C8.6249456 28.38774386 7.2787456 31.78624447 5.9375 35.1875 C5.35258789 36.62706055 5.35258789 36.62706055 4.75585938 38.09570312 C4.39169922 39.02705078 4.02753906 39.95839844 3.65234375 40.91796875 C3.31195068 41.77156982 2.97155762 42.6251709 2.62084961 43.50463867 C1.71076474 46.40444458 1.71076474 46.40444458 3 51 C8.28 51 13.56 51 19 51 C20.10172669 46.59309324 19.82544916 45.79420899 18.12890625 41.796875 C17.71962891 40.8171875 17.31035156 39.8375 16.88867188 38.828125 C16.2322168 37.30445313 16.2322168 37.30445313 15.5625 35.75 C15.12873047 34.71875 14.69496094 33.6875 14.24804688 32.625 C13.17538013 30.07888993 12.09241991 27.53768289 11 25 C10.67 25 10.34 25 10 25 Z M1 49 C2 51 2 51 2 51 Z " fill="#104169" transform="translate(347,38)"/>
<path d="M0 0 C7.26 0 14.52 0 22 0 C22 29.04 22 58.08 22 88 C0 88 0 88 -3 87 C-4.485 87.4640625 -4.485 87.4640625 -6 87.9375 C-13.73669166 90.29922693 -21.32032439 89.63931754 -28.6484375 86.32421875 C-37.56666594 81.30215988 -43.24056849 73.79780528 -46 64 C-46.96837411 53.97669916 -45.85623814 44.74038515 -39.5703125 36.62890625 C-31.8261961 28.59583029 -22.37543102 25.97634096 -11.625 25.125 C-10.57107056 25.03255005 -10.57107056 25.03255005 -9.49584961 24.93823242 C-7.4765625 24.8203125 -7.4765625 24.8203125 -4 25 C-3.01 25.99 -2.02 26.98 -1 28 C-0.67 18.76 -0.34 9.52 0 0 Z M-23.4375 49.625 C-25.98522344 55.12808264 -25.81015589 59.69745168 -23.8125 65.375 C-21.81072081 68.27412848 -20.14194413 69.46930927 -17 71 C-16.34 71.33 -15.68 71.66 -15 72 C-12.99576395 72.31204552 -12.99576395 72.31204552 -10.75 72.375 C-10.00234375 72.42398438 -9.2546875 72.47296875 -8.484375 72.5234375 C-4.74633594 71.73586323 -2.16110855 70.10217952 0 67 C0.71857981 63.69423838 0.57059961 60.55030875 0.375 57.1875 C0.34792969 56.30384766 0.32085937 55.42019531 0.29296875 54.50976562 C0.22255869 52.33878886 0.11494606 50.16907471 0 48 C-8.75417464 43.7278102 -15.8563927 41.4607306 -23.4375 49.625 Z " fill="#104169" transform="translate(448,34)"/>
<path d="M0 0 C2.60557491 0.28184585 5.20900398 0.57502711 7.8125 0.875 C8.55048828 0.95363281 9.28847656 1.03226563 10.04882812 1.11328125 C13.71506181 1.54460286 15.87951745 1.9196783 19 4 C19.33 3.67 19.66 3.34 20 3 C27.26 3 34.52 3 42 3 C42 23.13 42 43.26 42 64 C20 64 20 64 17 63 C16.01 63.309375 15.02 63.61875 14 63.9375 C6.00377058 66.40047362 -2.50857278 65.63554556 -10 62 C-17.25568725 57.83864996 -22.02147933 51.90564714 -25.140625 44.171875 C-27.407425 35.80532228 -27.11534335 26.24394121 -23.40234375 18.35546875 C-19.7063374 12.14741351 -16.09883623 6.28643498 -9 4 C-8.18917969 3.71898437 -7.37835937 3.43796875 -6.54296875 3.1484375 C-5.76566406 2.89320312 -4.98835937 2.63796875 -4.1875 2.375 C-3.00220703 1.98441406 -3.00220703 1.98441406 -1.79296875 1.5859375 C-1.20128906 1.39257812 -0.60960937 1.19921875 0 1 C0 0.67 0 0.34 0 0 Z M-3 25 C-5.46167628 28.85305852 -5.16382021 32.39876912 -4.54296875 36.78125 C-3.56658639 40.77107145 -1.7032379 43.92016943 1.79296875 46.13671875 C4.46378704 47.18141051 6.63530192 47.33564975 9.5 47.375 C10.90765625 47.41753906 10.90765625 47.41753906 12.34375 47.4609375 C15.05662213 47.14586231 15.05662213 47.14586231 17.359375 45.6484375 C20.01013041 41.3693609 19.15969802 37.1338605 18.75 32.25 C18.68425781 31.26644531 18.61851562 30.28289062 18.55078125 29.26953125 C18.38596499 26.84437769 18.20175377 24.42231411 18 22 C10.01888473 18.45757985 2.98332063 18.26876429 -3 25 Z M19 23 C19 29.6 19 36.2 19 43 C19.33 43 19.66 43 20 43 C20 36.4 20 29.8 20 23 C19.67 23 19.34 23 19 23 Z " fill="#104169" transform="translate(568,58)"/>
<path d="M0 0 C0.86302734 -0.01224609 1.72605469 -0.02449219 2.61523438 -0.03710938 C3.85950195 -0.04000977 3.85950195 -0.04000977 5.12890625 -0.04296875 C5.88373291 -0.04707764 6.63855957 -0.05118652 7.41625977 -0.05541992 C9.4375 0.1875 9.4375 0.1875 12.4375 2.1875 C12.7675 1.8575 13.0975 1.5275 13.4375 1.1875 C20.3675 1.1875 27.2975 1.1875 34.4375 1.1875 C34.4375 21.3175 34.4375 41.4475 34.4375 62.1875 C27.10416667 62.1875 19.77083333 62.1875 12.4375 62.1875 C11.41269531 62.34605469 10.38789062 62.50460938 9.33203125 62.66796875 C-0.66547013 64.00163744 -10.65761908 64.52698372 -19.5625 59.1875 C-22.5 56.625 -22.5 56.625 -24.5625 54.1875 C-25.078125 53.73375 -25.59375 53.28 -26.125 52.8125 C-33.12891425 44.89503172 -33.14938754 36.37682092 -32.73730469 26.36035156 C-32.071604 18.08558039 -27.57389448 11.65240407 -21.5625 6.1875 C-14.39815801 0.80420004 -8.78559004 0.00659084 0 0 Z M-8.5625 22.1875 C-11.3669641 26.95508898 -12.03055635 30.67344984 -11.21484375 36.03515625 C-10.12435649 39.63311123 -8.24010562 41.57520183 -5.5625 44.1875 C-2.89153306 45.52298347 -0.73210576 45.43013562 2.25 45.5 C3.28769531 45.53738281 4.32539062 45.57476562 5.39453125 45.61328125 C9.37106347 45.05687302 10.84806078 44.27887762 13.4375 41.1875 C14.19243625 38.00400184 14.18153092 34.94663016 14.125 31.6875 C14.15271484 30.83285156 14.18042969 29.97820312 14.20898438 29.09765625 C14.19941308 26.64357511 14.07935652 24.55690953 13.4375 22.1875 C9.81776104 18.74612499 6.82631919 17.63115497 1.875 17.6875 C-2.82775961 17.88530943 -5.46151752 18.4081776 -8.5625 22.1875 Z " fill="#104169" transform="translate(767.5625,155.8125)"/>
<path d="M0 0 C7.82843801 5.2145582 11.39888365 11.34674367 13.25 20.4375 C14.1399611 25.46271136 14 29.68991361 14 35 C0.47 35.33 -13.06 35.66 -27 36 C-26.34 37.32 -25.68 38.64 -25 40 C-21.79037044 41.06987652 -19.31100738 41.20081156 -15.9375 41.25 C-14.87402344 41.27578125 -13.81054688 41.3015625 -12.71484375 41.328125 C-11.81894531 41.21984375 -10.92304687 41.1115625 -10 41 C-9.34 40.01 -8.68 39.02 -8 38 C-5.84521484 37.65942383 -5.84521484 37.65942383 -3.2109375 37.70703125 C-2.26992188 37.71669922 -1.32890625 37.72636719 -0.359375 37.73632812 C0.62546875 37.76146484 1.6103125 37.78660156 2.625 37.8125 C4.11386719 37.83280273 4.11386719 37.83280273 5.6328125 37.85351562 C8.08908072 37.88894257 10.54427285 37.93833804 13 38 C12.56374713 42.76434058 12.09706957 45.64695814 8.75 49.125 C8.11835937 49.78886719 7.48671875 50.45273438 6.8359375 51.13671875 C5.92714844 52.05904297 5.92714844 52.05904297 5 53 C3.700625 54.4540625 3.700625 54.4540625 2.375 55.9375 C-0.2081927 58.18079892 -1.65522447 58.63840265 -5 59 C-5.99 59.495 -5.99 59.495 -7 60 C-9.67321714 60.28518157 -12.31967918 60.51177967 -15 60.6875 C-15.73734375 60.74744141 -16.4746875 60.80738281 -17.234375 60.86914062 C-19.15249494 60.99689861 -21.0776401 61.00621453 -23 61 C-23.66 60.34 -24.32 59.68 -25 59 C-26.2375 58.731875 -27.475 58.46375 -28.75 58.1875 C-33.33878619 57.13174666 -35.60709709 55.23868005 -39 52 C-40.0209375 51.071875 -40.0209375 51.071875 -41.0625 50.125 C-48.03474185 42.47802507 -50.84223063 35.39843553 -51 25 C-50.41065604 17.07659786 -46.78089267 9.78900617 -41.1796875 4.17578125 C-29.22163739 -5.43423068 -13.68935013 -7.33126334 0 0 Z M-26 16 C-26.99 17.98 -27.98 19.96 -29 22 C-22.07 22 -15.14 22 -8 22 C-7.67 21.01 -7.34 20.02 -7 19 C-8.54013544 16.05974144 -9.82653726 14.36892957 -13.0625 13.3515625 C-18.15399165 12.57751816 -21.72421251 12.84406162 -26 16 Z " fill="#134268" transform="translate(567,159)"/>
<path d="M0 0 C2.03670327 1.73440965 3.7942965 3.52160752 5.54296875 5.54296875 C6.30609375 6.34734375 7.06921875 7.15171875 7.85546875 7.98046875 C12.19403123 14.56865623 12.98232777 20.57844653 12.87109375 28.2578125 C12.86922058 29.15415909 12.86734741 30.05050568 12.86541748 30.97401428 C12.85873781 32.85226204 12.84490567 34.73049687 12.82421875 36.60864258 C12.79279554 39.49638662 12.78321595 42.38358554 12.77734375 45.27148438 C12.76818349 47.10026714 12.75781085 48.92904433 12.74609375 50.7578125 C12.74184387 51.62437973 12.73759399 52.49094696 12.73321533 53.3837738 C12.66019412 59.42574338 12.66019412 59.42574338 11.54296875 60.54296875 C9.9812413 60.62982478 8.41567531 60.64999094 6.8515625 60.640625 C5.90732422 60.63740234 4.96308594 60.63417969 3.99023438 60.63085938 C2.99701172 60.62248047 2.00378906 60.61410156 0.98046875 60.60546875 C-0.01662109 60.60095703 -1.01371094 60.59644531 -2.04101562 60.59179688 C-4.51307974 60.57996882 -6.98502643 60.56348724 -9.45703125 60.54296875 C-9.47161377 59.47860596 -9.48619629 58.41424316 -9.5012207 57.31762695 C-9.55932905 53.35700406 -9.6365607 49.39694227 -9.71948242 45.43676758 C-9.75267294 43.72494637 -9.78072314 42.01301727 -9.8034668 40.30102539 C-9.83712157 37.83563396 -9.88944099 35.37122594 -9.9453125 32.90625 C-9.95170242 32.14460037 -9.95809235 31.38295074 -9.9646759 30.59822083 C-10.08786226 26.11509612 -10.59833344 23.06522509 -13.45703125 19.54296875 C-17.8679128 18.0726749 -22.27748174 17.5320266 -26.54614258 19.51196289 C-29.52439363 22.67742482 -29.06035229 26.2400475 -29.06640625 30.3671875 C-29.0829425 31.22858841 -29.09947876 32.08998932 -29.11651611 32.97749329 C-29.16509795 35.72855688 -29.18638914 38.47906737 -29.20703125 41.23046875 C-29.23518249 43.09573111 -29.26510873 44.96096758 -29.296875 46.82617188 C-29.37420293 51.39869439 -29.414625 55.96945506 -29.45703125 60.54296875 C-36.71703125 60.54296875 -43.97703125 60.54296875 -51.45703125 60.54296875 C-51.47958622 52.73721288 -51.49794863 44.93147468 -51.50884342 37.12569523 C-51.51407127 33.50150915 -51.52116712 29.87734645 -51.5324707 26.25317383 C-51.54330309 22.758369 -51.54930883 19.26358671 -51.55190849 15.7687664 C-51.55466676 13.78057486 -51.56247813 11.79239244 -51.57032776 9.80421448 C-51.57040329 8.60304489 -51.57047882 7.40187531 -51.57055664 6.16430664 C-51.57277725 5.1006337 -51.57499786 4.03696075 -51.57728577 2.9410553 C-51.45703125 0.54296875 -51.45703125 0.54296875 -50.45703125 -0.45703125 C-49.00352538 -0.5437938 -47.54590666 -0.56406006 -46.08984375 -0.5546875 C-44.76146484 -0.54985352 -44.76146484 -0.54985352 -43.40625 -0.54492188 C-42.47425781 -0.53654297 -41.54226563 -0.52816406 -40.58203125 -0.51953125 C-39.65777344 -0.51501953 -38.73351562 -0.51050781 -37.78125 -0.50585938 C-36.06004574 -0.49711596 -34.33884987 -0.48632847 -32.61767578 -0.47290039 C-28.91025066 -0.44567071 -25.71456133 -0.78426042 -22.08203125 -1.51953125 C-14.80848748 -2.71711231 -6.61182067 -3.92084119 0 0 Z " fill="#114169" transform="translate(669.45703125,61.45703125)"/>
<path d="M0 0 C8.17022177 -0.25937212 8.17022177 -0.25937212 12.203125 3.15625 C13.4901607 3.89355992 14.78188315 4.62274801 16.078125 5.34375 C22.80738859 9.51187596 25.73535231 14.75293194 28.203125 22.15625 C28.203125 27.76625 28.203125 33.37625 28.203125 39.15625 C14.673125 39.48625 1.143125 39.81625 -12.796875 40.15625 C-9.48005464 45.23032972 -9.48005464 45.23032972 -5.796875 46.15625 C-3.6464533 46.38900063 -3.6464533 46.38900063 -1.359375 46.40625 C-0.59753906 46.43203125 0.16429687 46.4578125 0.94921875 46.484375 C3.30015122 46.34032352 3.30015122 46.34032352 5.0324707 44.65405273 C7.65756346 42.84267673 9.03089069 42.8055384 12.1875 42.86328125 C13.12207031 42.87294922 14.05664062 42.88261719 15.01953125 42.89257812 C15.98761719 42.91771484 16.95570313 42.94285156 17.953125 42.96875 C19.42845703 42.98905273 19.42845703 42.98905273 20.93359375 43.00976562 C23.35732915 43.04506274 25.77994645 43.09436946 28.203125 43.15625 C25.84184708 51.08520603 23.37116425 56.24480323 15.921875 60.44140625 C6.8155675 64.67583924 -2.77500534 65.76420997 -12.421875 62.59375 C-21.6793434 58.81680854 -28.06427782 52.93870903 -32.796875 44.15625 C-33.48415348 42.49797665 -34.15379388 40.83215838 -34.796875 39.15625 C-35.126875 38.49625 -35.456875 37.83625 -35.796875 37.15625 C-34.21065516 15.7687191 -34.21065516 15.7687191 -27.234375 9.71875 C-26.09369159 8.85771801 -24.9484842 8.00261339 -23.796875 7.15625 C-23.136875 6.49625 -22.476875 5.83625 -21.796875 5.15625 C-14.54391346 1.92050116 -7.84284667 0.43814786 0 0 Z M-11.796875 21.15625 C-12.456875 22.80625 -13.116875 24.45625 -13.796875 26.15625 C-6.536875 26.15625 0.723125 26.15625 8.203125 26.15625 C7.15612465 21.89666914 7.15612465 21.89666914 4.203125 19.15625 C-1.7159364 17.18322953 -6.60268077 17.65318878 -11.796875 21.15625 Z " fill="#104169" transform="translate(790.796875,58.84375)"/>
<path d="M0 0 C5.6376104 3.88631083 9.98436148 8.33814388 12 15 C12.41461402 17.66336801 12.7119694 20.31823938 13 23 C9.58397985 23.17446934 6.16910363 23.28089623 2.75 23.375 C1.29787109 23.45041016 1.29787109 23.45041016 -0.18359375 23.52734375 C-2.91209466 23.58379549 -5.32954952 23.57087677 -8 23 C-10.52734375 20.06640625 -10.52734375 20.06640625 -12 17 C-16.12645432 14.43490677 -19.35953289 15.00561419 -24 16 C-27.14170365 16.83778764 -28.51980408 17.26827288 -30.3125 20 C-31.43202573 24.88520319 -32.18597059 30.21408796 -30.171875 34.9453125 C-28.70402512 37.21281195 -27.43512757 38.78243621 -25 40 C-23.21140489 40.12207871 -21.41771619 40.17548448 -19.625 40.1875 C-18.66851563 40.20167969 -17.71203125 40.21585938 -16.7265625 40.23046875 C-13.96989983 39.99745572 -12.35052605 39.40920164 -10 38 C-10 36.35 -10 34.7 -10 33 C-7.59940183 31.79970092 -6.10639351 31.88540257 -3.4296875 31.90234375 C-2.53378906 31.90556641 -1.63789062 31.90878906 -0.71484375 31.91210938 C0.69087891 31.92467773 0.69087891 31.92467773 2.125 31.9375 C3.06988281 31.94201172 4.01476562 31.94652344 4.98828125 31.95117188 C7.32558387 31.96297643 9.66276061 31.97944241 12 32 C13.56012771 37.37471791 11.4378525 41.13200972 9 46 C4.56912435 52.83831808 -1.0824135 57.17286465 -9 59 C-9.99 59.495 -9.99 59.495 -11 60 C-13.9729241 60.26151272 -16.9543274 60.23142772 -19.9375 60.25 C-20.76185547 60.270625 -21.58621094 60.29125 -22.43554688 60.3125 C-23.22896484 60.31765625 -24.02238281 60.3228125 -24.83984375 60.328125 C-25.56550537 60.3374707 -26.29116699 60.34681641 -27.03881836 60.35644531 C-29.53682885 59.90243121 -30.33119279 58.85177606 -32 57 C-33.32303717 56.6278958 -34.65737935 56.29369827 -36 56 C-43.9790077 50.68066153 -49.66179403 42.90188258 -53 34 C-53.33 34 -53.66 34 -54 34 C-54.125 28.25 -54.125 28.25 -53 26 C-53.00864083 23.72314088 -53.13048722 21.46453697 -53.2578125 19.19140625 C-52.93261653 16.42724053 -52.04228411 15.80986922 -50 14 C-49.00467729 12.23410488 -48.00963054 10.46804782 -47.01953125 8.69921875 C-43.48772808 2.81288014 -37.10113676 -0.92394291 -30.7578125 -3.125 C-20.73722387 -5.45827636 -8.94452746 -5.52312352 0 0 Z " fill="#134268" transform="translate(718,160)"/>
<path d="M0 0 C1.18239258 0.00676758 1.18239258 0.00676758 2.38867188 0.01367188 C4.32164761 0.02538688 6.25458393 0.04332002 8.1875 0.0625 C8.1875 0.7225 8.1875 1.3825 8.1875 2.0625 C9.1775 1.7325 10.1675 1.4025 11.1875 1.0625 C11.1875 1.7225 11.1875 2.3825 11.1875 3.0625 C12.4559375 3.3409375 12.4559375 3.3409375 13.75 3.625 C20.21377139 6.32803167 23.92079268 10.78531305 26.625 17.1875 C27.93059199 20.60716772 28.44750509 23.39706232 28.1875 27.0625 C27.1875 28.0625 27.1875 28.0625 25.32983398 28.17602539 C24.14369507 28.16817017 24.14369507 28.16817017 22.93359375 28.16015625 C22.07958984 28.15693359 21.22558594 28.15371094 20.34570312 28.15039062 C19.44787109 28.14201172 18.55003906 28.13363281 17.625 28.125 C16.72330078 28.12048828 15.82160156 28.11597656 14.89257812 28.11132812 C12.65748686 28.09950225 10.42252563 28.0830222 8.1875 28.0625 C7.51267578 26.62003906 7.51267578 26.62003906 6.82421875 25.1484375 C5.47862794 21.99189354 5.47862794 21.99189354 3 20.6875 C-2.51201342 19.46260813 -6.20177231 19.22730786 -11.1875 21.8125 C-15.12427416 25.18687785 -15.67815752 26.69668475 -16.1875 31.875 C-16.06503086 36.55507063 -14.53276442 39.28435498 -11.8125 43.0625 C-8.56869196 45.22503869 -5.90343667 45.27895087 -2.0625 45.1875 C-1.07765625 45.16945312 -0.0928125 45.15140625 0.921875 45.1328125 C1.66953125 45.10960937 2.4171875 45.08640625 3.1875 45.0625 C3.47625 44.11375 3.765 43.165 4.0625 42.1875 C5.1875 39.0625 5.1875 39.0625 7.1875 37.0625 C9.34228516 36.83544922 9.34228516 36.83544922 11.9765625 36.8671875 C12.91757812 36.87363281 13.85859375 36.88007812 14.828125 36.88671875 C16.30539062 36.91185547 16.30539062 36.91185547 17.8125 36.9375 C18.80507813 36.94652344 19.79765625 36.95554688 20.8203125 36.96484375 C23.27628134 36.98845884 25.73177168 37.02139201 28.1875 37.0625 C27.3240916 45.77838062 24.83945567 50.81775414 18.375 56.875 C10.92949513 62.95042126 2.72248966 64.40844067 -6.8125 64.0625 C-18.14644538 62.00645549 -25.98143959 57.32398276 -32.5625 47.953125 C-37.87980584 39.91069992 -38.1934539 34.57694618 -36.8125 25.0625 C-34.94101321 17.83222043 -31.20629433 11.26566127 -25.8125 6.0625 C-23.30859375 4.91015625 -23.30859375 4.91015625 -20.8125 4.0625 C-19.6575 3.546875 -18.5025 3.03125 -17.3125 2.5 C-11.44179806 0.08881884 -6.25440271 -0.06815359 0 0 Z " fill="#114169" transform="translate(723.8125,59.9375)"/>
<path d="M0 0 C3.60374463 -0.14500644 7.20674242 -0.23396763 10.8125 -0.3125 C11.83666016 -0.35439453 12.86082031 -0.39628906 13.91601562 -0.43945312 C14.89892578 -0.45556641 15.88183594 -0.47167969 16.89453125 -0.48828125 C17.80050049 -0.51446533 18.70646973 -0.54064941 19.63989258 -0.56762695 C22 0 22 0 23.65258789 2.14672852 C25.05798352 5.12278553 26.40183419 8.10070826 27.6640625 11.140625 C28.14617187 12.29304688 28.62828125 13.44546875 29.125 14.6328125 C29.62 15.82648438 30.115 17.02015625 30.625 18.25 C31.61501492 20.63111281 32.60708793 23.01137132 33.6015625 25.390625 C34.03807129 26.44282227 34.47458008 27.49501953 34.92431641 28.57910156 C35.78350564 30.90319445 35.78350564 30.90319445 37 32 C37.38857178 31.06615479 37.77714355 30.13230957 38.17749023 29.17016602 C39.61559414 25.71583745 41.0569324 22.26286644 42.49926758 18.81030273 C43.12385391 17.31392846 43.74755462 15.81718421 44.37036133 14.32006836 C45.2641281 12.17204177 46.16103935 10.02535244 47.05859375 7.87890625 C47.3377916 7.20598038 47.61698944 6.5330545 47.90464783 5.83973694 C49.88612829 1.11387171 49.88612829 1.11387171 51 0 C52.63472882 -0.08700342 54.27314055 -0.10701063 55.91015625 -0.09765625 C57.39418945 -0.09282227 57.39418945 -0.09282227 58.90820312 -0.08789062 C59.94912109 -0.07951172 60.99003906 -0.07113281 62.0625 -0.0625 C63.62967773 -0.05573242 63.62967773 -0.05573242 65.22851562 -0.04882812 C67.8190666 -0.03699913 70.40950559 -0.02051689 73 0 C72.42979483 5.89515634 70.09133368 10.75540246 67.66796875 16.078125 C67.23494949 17.0447406 66.80193024 18.0113562 66.35578918 19.00726318 C64.97292673 22.09117654 63.58066432 25.17072864 62.1875 28.25 C60.80678315 31.31573722 59.42808828 34.3823661 58.05134583 37.44989014 C57.19587665 39.35446406 56.33787334 41.25790261 55.47685242 43.15997314 C54.88152458 44.48119171 54.88152458 44.48119171 54.27416992 45.82910156 C53.93077072 46.58821838 53.58737152 47.34733521 53.23356628 48.12945557 C51.40503167 52.38450852 49.72002464 56.69993841 48 61 C40.74 61 33.48 61 26 61 C10.30023783 25.76318888 10.30023783 25.76318888 4 11.375 C3.58572754 10.4358374 3.17145508 9.4966748 2.74462891 8.52905273 C2.37515137 7.68157471 2.00567383 6.83409668 1.625 5.9609375 C1.30789063 5.23696777 0.99078125 4.51299805 0.6640625 3.76708984 C0 2 0 2 0 0 Z " fill="#114169" transform="translate(473,61)"/>
<path d="M0 0 C0 6.27 0 12.54 0 19 C-6 21 -6 21 -9.5625 21.4375 C-13.09746594 22.01594897 -15.0458821 23.05872253 -18 25 C-18.66 25 -19.32 25 -20 25 C-20 36.55 -20 48.1 -20 60 C-27.26 60 -34.52 60 -42 60 C-42 40.2 -42 20.4 -42 0 C-34.74 0 -27.48 0 -20 0 C-20 1.65 -20 3.3 -20 5 C-19.34 5 -18.68 5 -18 5 C-18 4.34 -18 3.68 -18 3 C-6.81034483 -1.36206897 -6.81034483 -1.36206897 0 0 Z " fill="#104169" transform="translate(630,157)"/>
<path d="M0 0 C6.93 0 13.86 0 21 0 C21 19.8 21 39.6 21 60 C14.07 60 7.14 60 0 60 C0 40.2 0 20.4 0 0 Z " fill="#0F416A" transform="translate(639,158)"/>
<path d="M0 0 C3.59668017 2.90832033 5.10269195 4.53843443 5.6328125 9.1328125 C5.25193535 12.94158404 4.52469841 14.86400866 1.875 17.6484375 C-1.08918705 19.91095709 -4.03093457 20.7840339 -7.7421875 20.8828125 C-12.87641902 19.42811357 -16.08133968 17.56590467 -18.7421875 12.8828125 C-19.36198782 8.62168532 -19.01731162 6.44364243 -17.1171875 2.5703125 C-12.6108079 -2.52901179 -5.97107117 -3.82898286 0 0 Z " fill="#104169" transform="translate(655.7421875,129.1171875)"/>
<path d="M0 0 C2.3698446 1.79339592 3.64368701 3.30964359 5 5.9375 C5 8 5 8 3.625 10.75 C0.29868634 13.60112599 -1.63524794 13.52600003 -5.87890625 13.46875 C-8.45765787 12.89886014 -9.35929347 12.03087454 -11 10 C-11.9375 8.125 -11.9375 8.125 -12 6 C-8.52046105 0.84068362 -6.24496914 -0.62449691 0 0 Z M0 5 C1 9 1 9 1 9 Z M-5 7 C-4 10 -4 10 -4 10 Z " fill="#F0BA2C" transform="translate(277,236)"/>
<path d="M0 0 C2.2855347 2.12791162 2.92303658 3.47408328 3.375 6.5625 C3 9 3 9 1.9375 10.875 C-1.17002199 12.67936761 -3.62799333 11.81177938 -7 11 C-8.39935013 8.20129973 -8.25265405 6.09501208 -8 3 C-5.91857964 -0.2864532 -3.74411467 -0.65522007 0 0 Z " fill="#174365" transform="translate(815,206)"/>
<path d="M0 0 C0.33 0 0.66 0 1 0 C2.59521652 28.99604453 1.67626991 57.98735123 1 87 C0.67 87 0.34 87 0 87 C0 58.29 0 29.58 0 0 Z " fill="#5E6253" transform="translate(471,34)"/>
<path d="M0 0 C0.33 0 0.66 0 1 0 C1 19.8 1 39.6 1 60 C0.67 60 0.34 60 0 60 C0 40.2 0 20.4 0 0 Z " fill="#5E6253" transform="translate(637,158)"/>
<path d="M0 0 C0.33 0 0.66 0 1 0 C1 19.47 1 38.94 1 59 C0.67 59 0.34 59 0 59 C0 39.53 0 20.06 0 0 Z " fill="#5E6253" transform="translate(586,158)"/>
<path d="M0 0 C0.33 0 0.66 0 1 0 C1 19.47 1 38.94 1 59 C0.67 59 0.34 59 0 59 C0 39.53 0 20.06 0 0 Z " fill="#5E6253" transform="translate(616,62)"/>
<path d="M0 0 C0.33 0 0.66 0 1 0 C1 19.14 1 38.28 1 58 C0.67 58 0.34 58 0 58 C0 38.86 0 19.72 0 0 Z " fill="#5E6253" transform="translate(407,159)"/>
<path d="M0 0 C0.33 0 0.66 0 1 0 C1 12.54 1 25.08 1 38 C0.67 38 0.34 38 0 38 C0 25.46 0 12.92 0 0 Z " fill="#5E6253" transform="translate(432,179)"/>
<path d="M0 0 C11.88 0 23.76 0 36 0 C36 0.33 36 0.66 36 1 C24.12 1 12.24 1 0 1 C0 0.67 0 0.34 0 0 Z " fill="#5E6253" transform="translate(175,251)"/>
<path d="M0 0 C0.33 0 0.66 0 1 0 C1 11.88 1 23.76 1 36 C0.67 36 0.34 36 0 36 C0 24.12 0 12.24 0 0 Z " fill="#5E6253" transform="translate(487,182)"/>
<path d="M0 0 C0.33 0 0.66 0 1 0 C1 11.88 1 23.76 1 36 C0.67 36 0.34 36 0 36 C0 24.12 0 12.24 0 0 Z " fill="#5E6253" transform="translate(447,182)"/>
<path d="M0 0 C0.33 0 0.66 0 1 0 C1 11.55 1 23.1 1 35 C0.67 35 0.34 35 0 35 C0 23.45 0 11.9 0 0 Z " fill="#5E6253" transform="translate(658,86)"/>
<path d="M0 0 C6.93 0 13.86 0 21 0 C21 0.33 21 0.66 21 1 C14.07 1 7.14 1 0 1 C0 0.67 0 0.34 0 0 Z " fill="#5E6253" transform="translate(382,219)"/>
<path d="M0 0 C6.93 0 13.86 0 21 0 C21 0.33 21 0.66 21 1 C14.07 1 7.14 1 0 1 C0 0.67 0 0.34 0 0 Z " fill="#5E6253" transform="translate(313,219)"/>
<path d="M0 0 C6.6 0 13.2 0 20 0 C20 0.33 20 0.66 20 1 C13.4 1 6.8 1 0 1 C0 0.67 0 0.34 0 0 Z " fill="#5E6253" transform="translate(410,219)"/>
<path d="M0 0 C6.6 0 13.2 0 20 0 C20 0.33 20 0.66 20 1 C13.4 1 6.8 1 0 1 C0 0.67 0 0.34 0 0 Z " fill="#5E6253" transform="translate(348,36)"/>
<path d="M0 0 C6.27 0 12.54 0 19 0 C19 0.33 19 0.66 19 1 C12.73 1 6.46 1 0 1 C0 0.67 0 0.34 0 0 Z " fill="#5E6253" transform="translate(782,219)"/>
<path d="M0 0 C6.27 0 12.54 0 19 0 C19 0.33 19 0.66 19 1 C12.73 1 6.46 1 0 1 C0 0.67 0 0.34 0 0 Z " fill="#5E6253" transform="translate(640,219)"/>
<path d="M0 0 C6.27 0 12.54 0 19 0 C19 0.33 19 0.66 19 1 C12.73 1 6.46 1 0 1 C0 0.67 0 0.34 0 0 Z " fill="#5E6253" transform="translate(490,219)"/>
<path d="M0 0 C6.27 0 12.54 0 19 0 C19 0.33 19 0.66 19 1 C12.73 1 6.46 1 0 1 C0 0.67 0 0.34 0 0 Z " fill="#5E6253" transform="translate(450,219)"/>
<path d="M0 0 C6.27 0 12.54 0 19 0 C19 0.33 19 0.66 19 1 C12.73 1 6.46 1 0 1 C0 0.67 0 0.34 0 0 Z " fill="#5E6253" transform="translate(589,218)"/>
<path d="M0 0 C6.27 0 12.54 0 19 0 C19 0.33 19 0.66 19 1 C12.73 1 6.46 1 0 1 C0 0.67 0 0.34 0 0 Z " fill="#5E6253" transform="translate(589,59)"/>
<path d="M0 0 C6.27 0 12.54 0 19 0 C19 0.33 19 0.66 19 1 C12.73 1 6.46 1 0 1 C0 0.67 0 0.34 0 0 Z " fill="#5E6253" transform="translate(450,32)"/>
<path d="M0 0 C0.33 0 0.66 0 1 0 C1 5.94 1 11.88 1 18 C0.67 18 0.34 18 0 18 C0 12.06 0 6.12 0 0 Z " fill="#5E6253" transform="translate(446,83)"/>
<path d="M0 0 C0.33 0 0.66 0 1 0 C1 4.62 1 9.24 1 14 C0.67 14 0.34 14 0 14 C0 9.38 0 4.76 0 0 Z " fill="#5E6253" transform="translate(540,84)"/>
<path d="M0 0 C0.33 0 0.66 0 1 0 C1 4.29 1 8.58 1 13 C0.67 13 0.34 13 0 13 C0 8.71 0 4.42 0 0 Z " fill="#5E6253" transform="translate(288,167)"/>
<path d="M0 0 C3.63 0 7.26 0 11 0 C11 0.33 11 0.66 11 1 C7.37 1 3.74 1 0 1 C0 0.67 0 0.34 0 0 Z " fill="#5E6253" transform="translate(760,220)"/>
<path d="M0 0 C3.63 0 7.26 0 11 0 C11 0.33 11 0.66 11 1 C7.37 1 3.74 1 0 1 C0 0.67 0 0.34 0 0 Z " fill="#5E6253" transform="translate(694,220)"/>
<path d="M0 0 C0.33 0 0.66 0 1 0 C1 3.3 1 6.6 1 10 C0.67 10 0.34 10 0 10 C0 6.7 0 3.4 0 0 Z " fill="#5E6253" transform="translate(733,183)"/>
<path d="M0 0 C0.33 0 0.66 0 1 0 C1 3.3 1 6.6 1 10 C0.67 10 0.34 10 0 10 C0 6.7 0 3.4 0 0 Z " fill="#5E6253" transform="translate(685,87)"/>
<path d="M0 0 C0.33 0 0.66 0 1 0 C1 3.3 1 6.6 1 10 C0.67 10 0.34 10 0 10 C0 6.7 0 3.4 0 0 Z " fill="#5E6253" transform="translate(400,86)"/>
<path d="M0 0 C0.33 0 0.66 0 1 0 C1 2.64 1 5.28 1 8 C0.67 8 0.34 8 0 8 C0 5.36 0 2.72 0 0 Z " fill="#5E6253" transform="translate(424,88)"/>
<path d="M0 0 C0.33 0 0.66 0 1 0 C1 1.98 1 3.96 1 6 C0.67 6 0.34 6 0 6 C0 4.02 0 2.04 0 0 Z " fill="#5E6253" transform="translate(512,178)"/>
<path d="M0 0 C0.33 0 0.66 0 1 0 C1 1.98 1 3.96 1 6 C0.67 6 0.34 6 0 6 C0 4.02 0 2.04 0 0 Z " fill="#5E6253" transform="translate(635,135)"/>
<path d="M0 0 C1.98 0 3.96 0 6 0 C6 0.33 6 0.66 6 1 C4.02 1 2.04 1 0 1 C0 0.67 0 0.34 0 0 Z " fill="#5E6253" transform="translate(574,58)"/>
<path d="M0 0 C1.65 0 3.3 0 5 0 C5 0.33 5 0.66 5 1 C3.35 1 1.7 1 0 1 C0 0.67 0 0.34 0 0 Z " fill="#5E6253" transform="translate(271,250)"/>
<path d="M0 0 C0.33 0 0.66 0 1 0 C1 1.65 1 3.3 1 5 C0.67 5 0.34 5 0 5 C0 3.35 0 1.7 0 0 Z " fill="#5E6253" transform="translate(664,181)"/>
<path d="M0 0 C0.33 0 0.66 0 1 0 C1 1.65 1 3.3 1 5 C0.67 5 0.34 5 0 5 C0 3.35 0 1.7 0 0 Z " fill="#5E6253" transform="translate(515,179)"/>
<path d="M0 0 C1.65 0 3.3 0 5 0 C5 0.33 5 0.66 5 1 C3.35 1 1.7 1 0 1 C0 0.67 0 0.34 0 0 Z " fill="#5E6253" transform="translate(789,58)"/>
<path d="M0 0 C1.65 0 3.3 0 5 0 C5 0.33 5 0.66 5 1 C3.35 1 1.7 1 0 1 C0 0.67 0 0.34 0 0 Z " fill="#5E6253" transform="translate(783,58)"/>
<path d="M0 0 C4 1 4 1 4 1 Z " fill="#5E6253" transform="translate(169,230)"/>
<path d="M0 0 C1 4 1 4 1 4 Z " fill="#5E6253" transform="translate(515,190)"/>
<path d="M0 0 C1 4 1 4 1 4 Z " fill="#5E6253" transform="translate(198,65)"/>
<path d="M0 0 C1 4 1 4 1 4 Z " fill="#5E6253" transform="translate(197,60)"/>
<path d="M0 0 C4 1 4 1 4 1 Z " fill="#5E6253" transform="translate(656,58)"/>
<path d="M0 0 C1 4 1 4 1 4 Z " fill="#5E6253" transform="translate(193,39)"/>
<path d="M0 0 C1 4 1 4 1 4 Z " fill="#5E6253" transform="translate(192,34)"/>
<path d="M0 0 C1 4 1 4 1 4 Z " fill="#5E6253" transform="translate(188,13)"/>
<path d="M0 0 C1 4 1 4 1 4 Z " fill="#5E6253" transform="translate(187,8)"/>
<path d="" fill="#5E6253" transform="translate(0,0)"/>
<path d="" fill="#5E6253" transform="translate(0,0)"/>
<path d="" fill="#5E6253" transform="translate(0,0)"/>
<path d="M0 0 C3 1 3 1 3 1 Z " fill="#5E6253" transform="translate(555,219)"/>
<path d="" fill="#5E6253" transform="translate(0,0)"/>
<path d="" fill="#5E6253" transform="translate(0,0)"/>
<path d="" fill="#5E6253" transform="translate(0,0)"/>
<path d="" fill="#5E6253" transform="translate(0,0)"/>
<path d="" fill="#5E6253" transform="translate(0,0)"/>
<path d="M0 0 C0.33 0.66 0.66 1.32 1 2 C0.34 1.67 -0.32 1.34 -1 1 C-0.67 0.67 -0.34 0.34 0 0 Z " fill="#5E6253" transform="translate(510,89)"/>
<path d="" fill="#5E6253" transform="translate(0,0)"/>
<path d="" fill="#5E6253" transform="translate(0,0)"/>
<path d="" fill="#5E6253" transform="translate(0,0)"/>
<path d="M0 0 C3 1 3 1 3 1 Z " fill="#5E6253" transform="translate(651,58)"/>
<path d="" fill="#5E6253" transform="translate(0,0)"/>
<path d="" fill="#5E6253" transform="translate(0,0)"/>
<path d="" fill="#5E6253" transform="translate(0,0)"/>
<path d="" fill="#5E6253" transform="translate(0,0)"/>
<path d="" fill="#5E6253" transform="translate(0,0)"/>
<path d="" fill="#5E6253" transform="translate(0,0)"/>
<path d="M0 0 C2 1 2 1 2 1 Z " fill="#5E6253" transform="translate(9,250)"/>
<path d="" fill="#5E6253" transform="translate(0,0)"/>
<path d="" fill="#5E6253" transform="translate(0,0)"/>
<path d="M0 0 C2 1 2 1 2 1 Z " fill="#5E6253" transform="translate(224,230)"/>
<path d="M0 0 C2 1 2 1 2 1 Z " fill="#5E6253" transform="translate(158,228)"/>
<path d="M0 0 C2 1 2 1 2 1 Z " fill="#5E6253" transform="translate(153,227)"/>
<path d="M0 0 C2 1 2 1 2 1 Z " fill="#5E6253" transform="translate(242,225)"/>
<path d="M0 0 C2 1 2 1 2 1 Z " fill="#5E6253" transform="translate(811,219)"/>
<path d="M0 0 C2 1 2 1 2 1 Z " fill="#5E6253" transform="translate(773,219)"/>
<path d="M0 0 C2 1 2 1 2 1 Z " fill="#5E6253" transform="translate(756,219)"/>
<path d="M0 0 C2 1 2 1 2 1 Z " fill="#5E6253" transform="translate(88,219)"/>
<path d="M0 0 C2 1 2 1 2 1 Z " fill="#5E6253" transform="translate(753,218)"/>
<path d="M0 0 C2 1 2 1 2 1 Z " fill="#5E6253" transform="translate(684,217)"/>
<path d="M0 0 C2 1 2 1 2 1 Z " fill="#5E6253" transform="translate(96,217)"/>
<path d="" fill="#5E6253" transform="translate(0,0)"/>
<path d="" fill="#5E6253" transform="translate(0,0)"/>
<path d="M0 0 C2 1 2 1 2 1 Z " fill="#5E6253" transform="translate(106,215)"/>
<path d="" fill="#5E6253" transform="translate(0,0)"/>
<path d="" fill="#5E6253" transform="translate(0,0)"/>
<path d="" fill="#5E6253" transform="translate(0,0)"/>
<path d="" fill="#5E6253" transform="translate(0,0)"/>
<path d="" fill="#5E6253" transform="translate(0,0)"/>
<path d="" fill="#5E6253" transform="translate(0,0)"/>
<path d="" fill="#5E6253" transform="translate(0,0)"/>
<path d="" fill="#5E6253" transform="translate(0,0)"/>
<path d="" fill="#5E6253" transform="translate(0,0)"/>
<path d="" fill="#5E6253" transform="translate(0,0)"/>
<path d="" fill="#5E6253" transform="translate(0,0)"/>
<path d="" fill="#5E6253" transform="translate(0,0)"/>
<path d="" fill="#5E6253" transform="translate(0,0)"/>
<path d="" fill="#5E6253" transform="translate(0,0)"/>
<path d="" fill="#5E6253" transform="translate(0,0)"/>
<path d="" fill="#5E6253" transform="translate(0,0)"/>
<path d="" fill="#5E6253" transform="translate(0,0)"/>
<path d="" fill="#5E6253" transform="translate(0,0)"/>
<path d="" fill="#5E6253" transform="translate(0,0)"/>
<path d="" fill="#5E6253" transform="translate(0,0)"/>
<path d="" fill="#5E6253" transform="translate(0,0)"/>
<path d="" fill="#5E6253" transform="translate(0,0)"/>
<path d="" fill="#5E6253" transform="translate(0,0)"/>
<path d="" fill="#5E6253" transform="translate(0,0)"/>
<path d="" fill="#5E6253" transform="translate(0,0)"/>
<path d="" fill="#5E6253" transform="translate(0,0)"/>
<path d="" fill="#5E6253" transform="translate(0,0)"/>
<path d="" fill="#5E6253" transform="translate(0,0)"/>
<path d="" fill="#5E6253" transform="translate(0,0)"/>
<path d="" fill="#5E6253" transform="translate(0,0)"/>
<path d="" fill="#5E6253" transform="translate(0,0)"/>
<path d="" fill="#5E6253" transform="translate(0,0)"/>
<path d="" fill="#5E6253" transform="translate(0,0)"/>
<path d="" fill="#5E6253" transform="translate(0,0)"/>
<path d="" fill="#5E6253" transform="translate(0,0)"/>
<path d="" fill="#5E6253" transform="translate(0,0)"/>
<path d="" fill="#5E6253" transform="translate(0,0)"/>
<path d="" fill="#5E6253" transform="translate(0,0)"/>
<path d="" fill="#5E6253" transform="translate(0,0)"/>
<path d="" fill="#5E6253" transform="translate(0,0)"/>
<path d="" fill="#5E6253" transform="translate(0,0)"/>
<path d="" fill="#5E6253" transform="translate(0,0)"/>
<path d="" fill="#5E6253" transform="translate(0,0)"/>
<path d="" fill="#5E6253" transform="translate(0,0)"/>
<path d="" fill="#5E6253" transform="translate(0,0)"/>
<path d="" fill="#5E6253" transform="translate(0,0)"/>
<path d="" fill="#5E6253" transform="translate(0,0)"/>
<path d="" fill="#5E6253" transform="translate(0,0)"/>
<path d="" fill="#5E6253" transform="translate(0,0)"/>
<path d="" fill="#5E6253" transform="translate(0,0)"/>
<path d="" fill="#5E6253" transform="translate(0,0)"/>
<path d="" fill="#5E6253" transform="translate(0,0)"/>
<path d="" fill="#5E6253" transform="translate(0,0)"/>
<path d="" fill="#5E6253" transform="translate(0,0)"/>
<path d="" fill="#5E6253" transform="translate(0,0)"/>
<path d="" fill="#5E6253" transform="translate(0,0)"/>
<path d="" fill="#5E6253" transform="translate(0,0)"/>
<path d="" fill="#5E6253" transform="translate(0,0)"/>
<path d="" fill="#5E6253" transform="translate(0,0)"/>
<path d="" fill="#5E6253" transform="translate(0,0)"/>
<path d="" fill="#5E6253" transform="translate(0,0)"/>
<path d="" fill="#5E6253" transform="translate(0,0)"/>
<path d="" fill="#5E6253" transform="translate(0,0)"/>
<path d="" fill="#5E6253" transform="translate(0,0)"/>
<path d="" fill="#5E6253" transform="translate(0,0)"/>
<path d="" fill="#5E6253" transform="translate(0,0)"/>
<path d="" fill="#5E6253" transform="translate(0,0)"/>
<path d="" fill="#5E6253" transform="translate(0,0)"/>
<path d="" fill="#5E6253" transform="translate(0,0)"/>
<path d="" fill="#5E6253" transform="translate(0,0)"/>
<path d="" fill="#5E6253" transform="translate(0,0)"/>
<path d="" fill="#5E6253" transform="translate(0,0)"/>
<path d="" fill="#5E6253" transform="translate(0,0)"/>
<path d="" fill="#5E6253" transform="translate(0,0)"/>
<path d="" fill="#5E6253" transform="translate(0,0)"/>
<path d="" fill="#5E6253" transform="translate(0,0)"/>
<path d="" fill="#5E6253" transform="translate(0,0)"/>
<path d="" fill="#5E6253" transform="translate(0,0)"/>
<path d="" fill="#5E6253" transform="translate(0,0)"/>
<path d="" fill="#5E6253" transform="translate(0,0)"/>
<path d="" fill="#5E6253" transform="translate(0,0)"/>
<path d="" fill="#5E6253" transform="translate(0,0)"/>
<path d="" fill="#5E6253" transform="translate(0,0)"/>
<path d="" fill="#5E6253" transform="translate(0,0)"/>
<path d="" fill="#5E6253" transform="translate(0,0)"/>
<path d="" fill="#5E6253" transform="translate(0,0)"/>
<path d="" fill="#5E6253" transform="translate(0,0)"/>
<path d="" fill="#5E6253" transform="translate(0,0)"/>
<path d="" fill="#5E6253" transform="translate(0,0)"/>
<path d="" fill="#5E6253" transform="translate(0,0)"/>
<path d="" fill="#5E6253" transform="translate(0,0)"/>
<path d="" fill="#5E6253" transform="translate(0,0)"/>
<path d="" fill="#5E6253" transform="translate(0,0)"/>
<path d="" fill="#5E6253" transform="translate(0,0)"/>
<path d="" fill="#5E6253" transform="translate(0,0)"/>
<path d="" fill="#5E6253" transform="translate(0,0)"/>
<path d="" fill="#5E6253" transform="translate(0,0)"/>
<path d="" fill="#5E6253" transform="translate(0,0)"/>
<path d="" fill="#5E6253" transform="translate(0,0)"/>
<path d="" fill="#5E6253" transform="translate(0,0)"/>
<path d="" fill="#5E6253" transform="translate(0,0)"/>
<path d="" fill="#5E6253" transform="translate(0,0)"/>
<path d="" fill="#5E6253" transform="translate(0,0)"/>
<path d="" fill="#5E6253" transform="translate(0,0)"/>
<path d="" fill="#5E6253" transform="translate(0,0)"/>
<path d="" fill="#5E6253" transform="translate(0,0)"/>
<path d="" fill="#5E6253" transform="translate(0,0)"/>
<path d="" fill="#5E6253" transform="translate(0,0)"/>
<path d="" fill="#5E6253" transform="translate(0,0)"/>
<path d="" fill="#5E6253" transform="translate(0,0)"/>
<path d="" fill="#5E6253" transform="translate(0,0)"/>
<path d="" fill="#5E6253" transform="translate(0,0)"/>
<path d="" fill="#5E6253" transform="translate(0,0)"/>
<path d="" fill="#5E6253" transform="translate(0,0)"/>
<path d="" fill="#5E6253" transform="translate(0,0)"/>
<path d="" fill="#5E6253" transform="translate(0,0)"/>
<path d="" fill="#5E6253" transform="translate(0,0)"/>
<path d="" fill="#5E6253" transform="translate(0,0)"/>
<path d="" fill="#5E6253" transform="translate(0,0)"/>
<path d="" fill="#5E6253" transform="translate(0,0)"/>
<path d="" fill="#5E6253" transform="translate(0,0)"/>
<path d="" fill="#5E6253" transform="translate(0,0)"/>
<path d="" fill="#5E6253" transform="translate(0,0)"/>
<path d="" fill="#5E6253" transform="translate(0,0)"/>
<path d="" fill="#5E6253" transform="translate(0,0)"/>
<path d="" fill="#5E6253" transform="translate(0,0)"/>
<path d="" fill="#5E6253" transform="translate(0,0)"/>
<path d="" fill="#5E6253" transform="translate(0,0)"/>
<path d="" fill="#5E6253" transform="translate(0,0)"/>
<path d="" fill="#5E6253" transform="translate(0,0)"/>
<path d="" fill="#5E6253" transform="translate(0,0)"/>
<path d="" fill="#5E6253" transform="translate(0,0)"/>
<path d="" fill="#5E6253" transform="translate(0,0)"/>
<path d="" fill="#5E6253" transform="translate(0,0)"/>
<path d="" fill="#5E6253" transform="translate(0,0)"/>
<path d="" fill="#5E6253" transform="translate(0,0)"/>
<path d="" fill="#5E6253" transform="translate(0,0)"/>
<path d="" fill="#5E6253" transform="translate(0,0)"/>
<path d="" fill="#5E6253" transform="translate(0,0)"/>
<path d="" fill="#5E6253" transform="translate(0,0)"/>
<path d="" fill="#5E6253" transform="translate(0,0)"/>
<path d="" fill="#5E6253" transform="translate(0,0)"/>
<path d="" fill="#5E6253" transform="translate(0,0)"/>
<path d="" fill="#5E6253" transform="translate(0,0)"/>
<path d="" fill="#5E6253" transform="translate(0,0)"/>
<path d="" fill="#5E6253" transform="translate(0,0)"/>
<path d="" fill="#5E6253" transform="translate(0,0)"/>
<path d="" fill="#5E6253" transform="translate(0,0)"/>
<path d="" fill="#5E6253" transform="translate(0,0)"/>
<path d="" fill="#5E6253" transform="translate(0,0)"/>
<path d="M0 0 C2 1 2 1 2 1 Z " fill="#5E6253" transform="translate(778,59)"/>
<path d="M0 0 C2 1 2 1 2 1 Z " fill="#5E6253" transform="translate(726,59)"/>
<path d="M0 0 C2 1 2 1 2 1 Z " fill="#5E6253" transform="translate(713,59)"/>
<path d="M0 0 C2 1 2 1 2 1 Z " fill="#5E6253" transform="translate(563,59)"/>
<path d="M0 0 C2 1 2 1 2 1 Z " fill="#5E6253" transform="translate(426,59)"/>
<path d="" fill="#5E6253" transform="translate(0,0)"/>
<path d="" fill="#5E6253" transform="translate(0,0)"/>
<path d="" fill="#5E6253" transform="translate(0,0)"/>
<path d="" fill="#5E6253" transform="translate(0,0)"/>
<path d="" fill="#5E6253" transform="translate(0,0)"/>
<path d="" fill="#5E6253" transform="translate(0,0)"/>
<path d="" fill="#5E6253" transform="translate(0,0)"/>
<path d="" fill="#5E6253" transform="translate(0,0)"/>
<path d="" fill="#5E6253" transform="translate(0,0)"/>
<path d="" fill="#5E6253" transform="translate(0,0)"/>
<path d="" fill="#5E6253" transform="translate(0,0)"/>
<path d="" fill="#5E6253" transform="translate(0,0)"/>
<path d="" fill="#5E6253" transform="translate(0,0)"/>
<path d="" fill="#5E6253" transform="translate(0,0)"/>
<path d="" fill="#5E6253" transform="translate(0,0)"/>
<path d="" fill="#5E6253" transform="translate(0,0)"/>
<path d="" fill="#5E6253" transform="translate(0,0)"/>
<path d="" fill="#5E6253" transform="translate(0,0)"/>
<path d="" fill="#5E6253" transform="translate(0,0)"/>
<path d="" fill="#5E6253" transform="translate(0,0)"/>
<path d="" fill="#5E6253" transform="translate(0,0)"/>
<path d="" fill="#5E6253" transform="translate(0,0)"/>
<path d="" fill="#5E6253" transform="translate(0,0)"/>
<path d="" fill="#5E6253" transform="translate(0,0)"/>
<path d="" fill="#5E6253" transform="translate(0,0)"/>
<path d="" fill="#5E6253" transform="translate(0,0)"/>
<path d="" fill="#5E6253" transform="translate(0,0)"/>
<path d="" fill="#5E6253" transform="translate(0,0)"/>
<path d="" fill="#5E6253" transform="translate(0,0)"/>
<path d="" fill="#5E6253" transform="translate(0,0)"/>
<path d="" fill="#5E6253" transform="translate(0,0)"/>
<path d="" fill="#5E6253" transform="translate(0,0)"/>
<path d="" fill="#5E6253" transform="translate(0,0)"/>
<path d="" fill="#5E6253" transform="translate(0,0)"/>
<path d="" fill="#5E6253" transform="translate(0,0)"/>
<path d="" fill="#5E6253" transform="translate(0,0)"/>
<path d="" fill="#5E6253" transform="translate(0,0)"/>
<path d="" fill="#5E6253" transform="translate(0,0)"/>
<path d="" fill="#5E6253" transform="translate(0,0)"/>
<path d="" fill="#5E6253" transform="translate(0,0)"/>
<path d="" fill="#5E6253" transform="translate(0,0)"/>
<path d="" fill="#5E6253" transform="translate(0,0)"/>
<path d="" fill="#5E6253" transform="translate(0,0)"/>
<path d="" fill="#5E6253" transform="translate(0,0)"/>
<path d="" fill="#5E6253" transform="translate(0,0)"/>
<path d="" fill="#5E6253" transform="translate(0,0)"/>
<path d="" fill="#5E6253" transform="translate(0,0)"/>
<path d="" fill="#5E6253" transform="translate(0,0)"/>
<path d="" fill="#5E6253" transform="translate(0,0)"/>
<path d="" fill="#5E6253" transform="translate(0,0)"/>
<path d="" fill="#5E6253" transform="translate(0,0)"/>
<path d="" fill="#5E6253" transform="translate(0,0)"/>
<path d="" fill="#5E6253" transform="translate(0,0)"/>
<path d="" fill="#5E6253" transform="translate(0,0)"/>
<path d="" fill="#5E6253" transform="translate(0,0)"/>
<path d="" fill="#5E6253" transform="translate(0,0)"/>
<path d="" fill="#5E6253" transform="translate(0,0)"/>
<path d="" fill="#5E6253" transform="translate(0,0)"/>
<path d="" fill="#5E6253" transform="translate(0,0)"/>
<path d="" fill="#5E6253" transform="translate(0,0)"/>
<path d="" fill="#5E6253" transform="translate(0,0)"/>
<path d="" fill="#5E6253" transform="translate(0,0)"/>
<path d="" fill="#5E6253" transform="translate(0,0)"/>
<path d="" fill="#5E6253" transform="translate(0,0)"/>
<path d="" fill="#5E6253" transform="translate(0,0)"/>
<path d="" fill="#5E6253" transform="translate(0,0)"/>
<path d="" fill="#5E6253" transform="translate(0,0)"/>
<path d="" fill="#5E6253" transform="translate(0,0)"/>
<path d="" fill="#5E6253" transform="translate(0,0)"/>
<path d="" fill="#5E6253" transform="translate(0,0)"/>
<path d="" fill="#5E6253" transform="translate(0,0)"/>
<path d="" fill="#5E6253" transform="translate(0,0)"/>
<path d="" fill="#5E6253" transform="translate(0,0)"/>
<path d="" fill="#5E6253" transform="translate(0,0)"/>
<path d="" fill="#5E6253" transform="translate(0,0)"/>
<path d="" fill="#5E6253" transform="translate(0,0)"/>
<path d="" fill="#5E6253" transform="translate(0,0)"/>
<path d="" fill="#5E6253" transform="translate(0,0)"/>
<path d="" fill="#5E6253" transform="translate(0,0)"/>
<path d="" fill="#5E6253" transform="translate(0,0)"/>
<path d="" fill="#5E6253" transform="translate(0,0)"/>
<path d="" fill="#5E6253" transform="translate(0,0)"/>
<path d="" fill="#5E6253" transform="translate(0,0)"/>
<path d="" fill="#5E6253" transform="translate(0,0)"/>
<path d="" fill="#5E6253" transform="translate(0,0)"/>
<path d="" fill="#5E6253" transform="translate(0,0)"/>
<path d="" fill="#5E6253" transform="translate(0,0)"/>
<path d="" fill="#5E6253" transform="translate(0,0)"/>
<path d="" fill="#5E6253" transform="translate(0,0)"/>
<path d="" fill="#5E6253" transform="translate(0,0)"/>
<path d="" fill="#5E6253" transform="translate(0,0)"/>
<path d="" fill="#5E6253" transform="translate(0,0)"/>
<path d="" fill="#5E6253" transform="translate(0,0)"/>
<path d="" fill="#5E6253" transform="translate(0,0)"/>
<path d="" fill="#5E6253" transform="translate(0,0)"/>
<path d="" fill="#5E6253" transform="translate(0,0)"/>
<path d="" fill="#5E6253" transform="translate(0,0)"/>
<path d="" fill="#5E6253" transform="translate(0,0)"/>
<path d="" fill="#5E6253" transform="translate(0,0)"/>
<path d="" fill="#5E6253" transform="translate(0,0)"/>
<path d="" fill="#5E6253" transform="translate(0,0)"/>
<path d="" fill="#5E6253" transform="translate(0,0)"/>
<path d="" fill="#5E6253" transform="translate(0,0)"/>
<path d="" fill="#5E6253" transform="translate(0,0)"/>
<path d="" fill="#5E6253" transform="translate(0,0)"/>
<path d="" fill="#5E6253" transform="translate(0,0)"/>
<path d="" fill="#5E6253" transform="translate(0,0)"/>
<path d="" fill="#5E6253" transform="translate(0,0)"/>
<path d="" fill="#5E6253" transform="translate(0,0)"/>
<path d="" fill="#5E6253" transform="translate(0,0)"/>
<path d="" fill="#5E6253" transform="translate(0,0)"/>
<path d="" fill="#5E6253" transform="translate(0,0)"/>
<path d="" fill="#5E6253" transform="translate(0,0)"/>
<path d="" fill="#5E6253" transform="translate(0,0)"/>
<path d="" fill="#5E6253" transform="translate(0,0)"/>
<path d="" fill="#5E6253" transform="translate(0,0)"/>
<path d="" fill="#5E6253" transform="translate(0,0)"/>
<path d="" fill="#5E6253" transform="translate(0,0)"/>
<path d="" fill="#5E6253" transform="translate(0,0)"/>
<path d="" fill="#5E6253" transform="translate(0,0)"/>
<path d="" fill="#5E6253" transform="translate(0,0)"/>
<path d="" fill="#5E6253" transform="translate(0,0)"/>
<path d="" fill="#5E6253" transform="translate(0,0)"/>
<path d="" fill="#5E6253" transform="translate(0,0)"/>
<path d="" fill="#5E6253" transform="translate(0,0)"/>
<path d="" fill="#5E6253" transform="translate(0,0)"/>
<path d="" fill="#5E6253" transform="translate(0,0)"/>
<path d="" fill="#5E6253" transform="translate(0,0)"/>
<path d="" fill="#5E6253" transform="translate(0,0)"/>
<path d="" fill="#5E6253" transform="translate(0,0)"/>
<path d="" fill="#5E6253" transform="translate(0,0)"/>
<path d="" fill="#5E6253" transform="translate(0,0)"/>
<path d="" fill="#5E6253" transform="translate(0,0)"/>
<path d="" fill="#5E6253" transform="translate(0,0)"/>
<path d="" fill="#5E6253" transform="translate(0,0)"/>
<path d="" fill="#5E6253" transform="translate(0,0)"/>
<path d="" fill="#5E6253" transform="translate(0,0)"/>
<path d="" fill="#5E6253" transform="translate(0,0)"/>
<path d="" fill="#5E6253" transform="translate(0,0)"/>
<path d="" fill="#5E6253" transform="translate(0,0)"/>
<path d="" fill="#5E6253" transform="translate(0,0)"/>
<path d="" fill="#5E6253" transform="translate(0,0)"/>
<path d="" fill="#5E6253" transform="translate(0,0)"/>
<path d="" fill="#5E6253" transform="translate(0,0)"/>
<path d="" fill="#5E6253" transform="translate(0,0)"/>
<path d="" fill="#5E6253" transform="translate(0,0)"/>
<path d="" fill="#5E6253" transform="translate(0,0)"/>
<path d="" fill="#5E6253" transform="translate(0,0)"/>
<path d="" fill="#5E6253" transform="translate(0,0)"/>
<path d="" fill="#5E6253" transform="translate(0,0)"/>
<path d="" fill="#5E6253" transform="translate(0,0)"/>
<path d="" fill="#5E6253" transform="translate(0,0)"/>
<path d="" fill="#5E6253" transform="translate(0,0)"/>
<path d="" fill="#5E6253" transform="translate(0,0)"/>
<path d="" fill="#5E6253" transform="translate(0,0)"/>
<path d="" fill="#5E6253" transform="translate(0,0)"/>
<path d="" fill="#5E6253" transform="translate(0,0)"/>
<path d="" fill="#5E6253" transform="translate(0,0)"/>
<path d="" fill="#5E6253" transform="translate(0,0)"/>
<path d="" fill="#5E6253" transform="translate(0,0)"/>
<path d="" fill="#5E6253" transform="translate(0,0)"/>
<path d="" fill="#5E6253" transform="translate(0,0)"/>
<path d="" fill="#5E6253" transform="translate(0,0)"/>
<path d="" fill="#5E6253" transform="translate(0,0)"/>
<path d="" fill="#5E6253" transform="translate(0,0)"/>
<path d="" fill="#5E6253" transform="translate(0,0)"/>
<path d="" fill="#5E6253" transform="translate(0,0)"/>
<path d="" fill="#5E6253" transform="translate(0,0)"/>
<path d="" fill="#5E6253" transform="translate(0,0)"/>
<path d="" fill="#5E6253" transform="translate(0,0)"/>
<path d="" fill="#5E6253" transform="translate(0,0)"/>
<path d="" fill="#5E6253" transform="translate(0,0)"/>
<path d="" fill="#5E6253" transform="translate(0,0)"/>
<path d="" fill="#5E6253" transform="translate(0,0)"/>
<path d="" fill="#5E6253" transform="translate(0,0)"/>
<path d="" fill="#5E6253" transform="translate(0,0)"/>
<path d="" fill="#5E6253" transform="translate(0,0)"/>
<path d="" fill="#5E6253" transform="translate(0,0)"/>
<path d="" fill="#5E6253" transform="translate(0,0)"/>
<path d="" fill="#5E6253" transform="translate(0,0)"/>
<path d="" fill="#5E6253" transform="translate(0,0)"/>
<path d="" fill="#5E6253" transform="translate(0,0)"/>
<path d="" fill="#5E6253" transform="translate(0,0)"/>
<path d="" fill="#5E6253" transform="translate(0,0)"/>
<path d="" fill="#5E6253" transform="translate(0,0)"/>
<path d="" fill="#5E6253" transform="translate(0,0)"/>
<path d="" fill="#5E6253" transform="translate(0,0)"/>
<path d="" fill="#5E6253" transform="translate(0,0)"/>
<path d="" fill="#5E6253" transform="translate(0,0)"/>
<path d="" fill="#5E6253" transform="translate(0,0)"/>
<path d="" fill="#5E6253" transform="translate(0,0)"/>
<path d="" fill="#5E6253" transform="translate(0,0)"/>
<path d="" fill="#5E6253" transform="translate(0,0)"/>
<path d="" fill="#5E6253" transform="translate(0,0)"/>
<path d="" fill="#5E6253" transform="translate(0,0)"/>
<path d="" fill="#5E6253" transform="translate(0,0)"/>
<path d="" fill="#5E6253" transform="translate(0,0)"/>
<path d="" fill="#5E6253" transform="translate(0,0)"/>
<path d="" fill="#5E6253" transform="translate(0,0)"/>
<path d="" fill="#5E6253" transform="translate(0,0)"/>
<path d="" fill="#5E6253" transform="translate(0,0)"/>
<path d="" fill="#5E6253" transform="translate(0,0)"/>
<path d="" fill="#5E6253" transform="translate(0,0)"/>
<path d="" fill="#5E6253" transform="translate(0,0)"/>
<path d="" fill="#5E6253" transform="translate(0,0)"/>
<path d="" fill="#5E6253" transform="translate(0,0)"/>
<path d="" fill="#5E6253" transform="translate(0,0)"/>
<path d="" fill="#5E6253" transform="translate(0,0)"/>
<path d="" fill="#5E6253" transform="translate(0,0)"/>
<path d="" fill="#5E6253" transform="translate(0,0)"/>
<path d="" fill="#5E6253" transform="translate(0,0)"/>
<path d="" fill="#5E6253" transform="translate(0,0)"/>
<path d="" fill="#5E6253" transform="translate(0,0)"/>
<path d="" fill="#5E6253" transform="translate(0,0)"/>
<path d="" fill="#5E6253" transform="translate(0,0)"/>
<path d="" fill="#5E6253" transform="translate(0,0)"/>
<path d="" fill="#5E6253" transform="translate(0,0)"/>
<path d="" fill="#5E6253" transform="translate(0,0)"/>
<path d="" fill="#5E6253" transform="translate(0,0)"/>
<path d="" fill="#5E6253" transform="translate(0,0)"/>
<path d="" fill="#5E6253" transform="translate(0,0)"/>
<path d="" fill="#5E6253" transform="translate(0,0)"/>
<path d="" fill="#5E6253" transform="translate(0,0)"/>
<path d="" fill="#5E6253" transform="translate(0,0)"/>
<path d="" fill="#5E6253" transform="translate(0,0)"/>
<path d="" fill="#5E6253" transform="translate(0,0)"/>
<path d="" fill="#5E6253" transform="translate(0,0)"/>
<path d="" fill="#5E6253" transform="translate(0,0)"/>
<path d="" fill="#5E6253" transform="translate(0,0)"/>
<path d="" fill="#5E6253" transform="translate(0,0)"/>
<path d="" fill="#5E6253" transform="translate(0,0)"/>
<path d="" fill="#5E6253" transform="translate(0,0)"/>
<path d="" fill="#5E6253" transform="translate(0,0)"/>
<path d="" fill="#5E6253" transform="translate(0,0)"/>
<path d="" fill="#5E6253" transform="translate(0,0)"/>
<path d="" fill="#5E6253" transform="translate(0,0)"/>
<path d="" fill="#5E6253" transform="translate(0,0)"/>
<path d="" fill="#5E6253" transform="translate(0,0)"/>
<path d="" fill="#5E6253" transform="translate(0,0)"/>
<path d="" fill="#5E6253" transform="translate(0,0)"/>
<path d="" fill="#5E6253" transform="translate(0,0)"/>
<path d="" fill="#5E6253" transform="translate(0,0)"/>
<path d="" fill="#5E6253" transform="translate(0,0)"/>
<path d="" fill="#5E6253" transform="translate(0,0)"/>
<path d="" fill="#5E6253" transform="translate(0,0)"/>
<path d="" fill="#5E6253" transform="translate(0,0)"/>
<path d="" fill="#5E6253" transform="translate(0,0)"/>
<path d="" fill="#5E6253" transform="translate(0,0)"/>
<path d="" fill="#5E6253" transform="translate(0,0)"/>
<path d="" fill="#5E6253" transform="translate(0,0)"/>
<path d="" fill="#5E6253" transform="translate(0,0)"/>
<path d="" fill="#5E6253" transform="translate(0,0)"/>
<path d="" fill="#5E6253" transform="translate(0,0)"/>
<path d="" fill="#5E6253" transform="translate(0,0)"/>
<path d="" fill="#5E6253" transform="translate(0,0)"/>
<path d="" fill="#5E6253" transform="translate(0,0)"/>
<path d="" fill="#5E6253" transform="translate(0,0)"/>
<path d="" fill="#5E6253" transform="translate(0,0)"/>
<path d="" fill="#5E6253" transform="translate(0,0)"/>
<path d="" fill="#5E6253" transform="translate(0,0)"/>
<path d="" fill="#5E6253" transform="translate(0,0)"/>
<path d="" fill="#5E6253" transform="translate(0,0)"/>
<path d="" fill="#5E6253" transform="translate(0,0)"/>
<path d="" fill="#5E6253" transform="translate(0,0)"/>
<path d="" fill="#5E6253" transform="translate(0,0)"/>
<path d="" fill="#5E6253" transform="translate(0,0)"/>
<path d="" fill="#5E6253" transform="translate(0,0)"/>
<path d="" fill="#5E6253" transform="translate(0,0)"/>
<path d="" fill="#5E6253" transform="translate(0,0)"/>
<path d="" fill="#5E6253" transform="translate(0,0)"/>
<path d="" fill="#5E6253" transform="translate(0,0)"/>
<path d="" fill="#5E6253" transform="translate(0,0)"/>
<path d="" fill="#5E6253" transform="translate(0,0)"/>
<path d="" fill="#5E6253" transform="translate(0,0)"/>
<path d="" fill="#5E6253" transform="translate(0,0)"/>
<path d="" fill="#5E6253" transform="translate(0,0)"/>
<path d="" fill="#5E6253" transform="translate(0,0)"/>
<path d="" fill="#5E6253" transform="translate(0,0)"/>
<path d="" fill="#5E6253" transform="translate(0,0)"/>
<path d="" fill="#5E6253" transform="translate(0,0)"/>
<path d="" fill="#5E6253" transform="translate(0,0)"/>
<path d="" fill="#5E6253" transform="translate(0,0)"/>
<path d="" fill="#5E6253" transform="translate(0,0)"/>
<path d="" fill="#5E6253" transform="translate(0,0)"/>
<path d="" fill="#5E6253" transform="translate(0,0)"/>
<path d="" fill="#5E6253" transform="translate(0,0)"/>
<path d="" fill="#5E6253" transform="translate(0,0)"/>
<path d="" fill="#5E6253" transform="translate(0,0)"/>
<path d="" fill="#5E6253" transform="translate(0,0)"/>
<path d="" fill="#5E6253" transform="translate(0,0)"/>
<path d="" fill="#5E6253" transform="translate(0,0)"/>
<path d="" fill="#5E6253" transform="translate(0,0)"/>
<path d="" fill="#5E6253" transform="translate(0,0)"/>
<path d="" fill="#5E6253" transform="translate(0,0)"/>
<path d="" fill="#5E6253" transform="translate(0,0)"/>
<path d="" fill="#5E6253" transform="translate(0,0)"/>
<path d="" fill="#5E6253" transform="translate(0,0)"/>
<path d="" fill="#5E6253" transform="translate(0,0)"/>
<path d="" fill="#5E6253" transform="translate(0,0)"/>
<path d="" fill="#5E6253" transform="translate(0,0)"/>
<path d="" fill="#5E6253" transform="translate(0,0)"/>
<path d="" fill="#5E6253" transform="translate(0,0)"/>
<path d="" fill="#5E6253" transform="translate(0,0)"/>
<path d="" fill="#5E6253" transform="translate(0,0)"/>
<path d="" fill="#5E6253" transform="translate(0,0)"/>
<path d="" fill="#5E6253" transform="translate(0,0)"/>
<path d="" fill="#5E6253" transform="translate(0,0)"/>
<path d="" fill="#5E6253" transform="translate(0,0)"/>
<path d="" fill="#5E6253" transform="translate(0,0)"/>
<path d="" fill="#5E6253" transform="translate(0,0)"/>
<path d="" fill="#5E6253" transform="translate(0,0)"/>
<path d="" fill="#5E6253" transform="translate(0,0)"/>
<path d="" fill="#5E6253" transform="translate(0,0)"/>
<path d="" fill="#5E6253" transform="translate(0,0)"/>
<path d="" fill="#5E6253" transform="translate(0,0)"/>
<path d="" fill="#5E6253" transform="translate(0,0)"/>
<path d="" fill="#5E6253" transform="translate(0,0)"/>
<path d="" fill="#5E6253" transform="translate(0,0)"/>
<path d="" fill="#5E6253" transform="translate(0,0)"/>
<path d="" fill="#5E6253" transform="translate(0,0)"/>
<path d="" fill="#5E6253" transform="translate(0,0)"/>
<path d="" fill="#5E6253" transform="translate(0,0)"/>
<path d="" fill="#5E6253" transform="translate(0,0)"/>
<path d="" fill="#5E6253" transform="translate(0,0)"/>
<path d="" fill="#5E6253" transform="translate(0,0)"/>
<path d="" fill="#5E6253" transform="translate(0,0)"/>
<path d="" fill="#5E6253" transform="translate(0,0)"/>
<path d="" fill="#5E6253" transform="translate(0,0)"/>
<path d="" fill="#5E6253" transform="translate(0,0)"/>
<path d="" fill="#5E6253" transform="translate(0,0)"/>
<path d="" fill="#5E6253" transform="translate(0,0)"/>
<path d="" fill="#5E6253" transform="translate(0,0)"/>
<path d="" fill="#5E6253" transform="translate(0,0)"/>
<path d="" fill="#5E6253" transform="translate(0,0)"/>
<path d="" fill="#5E6253" transform="translate(0,0)"/>
<path d="" fill="#5E6253" transform="translate(0,0)"/>
<path d="" fill="#5E6253" transform="translate(0,0)"/>
<path d="" fill="#5E6253" transform="translate(0,0)"/>
<path d="" fill="#5E6253" transform="translate(0,0)"/>
<path d="" fill="#5E6253" transform="translate(0,0)"/>
<path d="" fill="#5E6253" transform="translate(0,0)"/>
<path d="" fill="#5E6253" transform="translate(0,0)"/>
<path d="" fill="#5E6253" transform="translate(0,0)"/>
<path d="" fill="#5E6253" transform="translate(0,0)"/>
<path d="" fill="#5E6253" transform="translate(0,0)"/>
<path d="" fill="#5E6253" transform="translate(0,0)"/>
<path d="" fill="#5E6253" transform="translate(0,0)"/>
<path d="" fill="#5E6253" transform="translate(0,0)"/>
<path d="" fill="#5E6253" transform="translate(0,0)"/>
<path d="" fill="#5E6253" transform="translate(0,0)"/>
<path d="" fill="#5E6253" transform="translate(0,0)"/>
<path d="" fill="#5E6253" transform="translate(0,0)"/>
<path d="" fill="#5E6253" transform="translate(0,0)"/>
<path d="" fill="#5E6253" transform="translate(0,0)"/>
<path d="" fill="#5E6253" transform="translate(0,0)"/>
<path d="" fill="#5E6253" transform="translate(0,0)"/>
<path d="" fill="#5E6253" transform="translate(0,0)"/>
<path d="" fill="#5E6253" transform="translate(0,0)"/>
<path d="" fill="#5E6253" transform="translate(0,0)"/>
<path d="" fill="#5E6253" transform="translate(0,0)"/>
<path d="" fill="#5E6253" transform="translate(0,0)"/>
<path d="" fill="#5E6253" transform="translate(0,0)"/>
<path d="" fill="#5E6253" transform="translate(0,0)"/>
<path d="" fill="#5E6253" transform="translate(0,0)"/>
<path d="" fill="#5E6253" transform="translate(0,0)"/>
<path d="" fill="#5E6253" transform="translate(0,0)"/>
<path d="" fill="#5E6253" transform="translate(0,0)"/>
<path d="" fill="#5E6253" transform="translate(0,0)"/>
<path d="" fill="#5E6253" transform="translate(0,0)"/>
<path d="" fill="#5E6253" transform="translate(0,0)"/>
<path d="" fill="#5E6253" transform="translate(0,0)"/>
<path d="" fill="#5E6253" transform="translate(0,0)"/>
<path d="" fill="#5E6253" transform="translate(0,0)"/>
<path d="" fill="#5E6253" transform="translate(0,0)"/>
<path d="" fill="#5E6253" transform="translate(0,0)"/>
<path d="" fill="#5E6253" transform="translate(0,0)"/>
<path d="" fill="#5E6253" transform="translate(0,0)"/>
<path d="" fill="#5E6253" transform="translate(0,0)"/>
<path d="" fill="#5E6253" transform="translate(0,0)"/>
<path d="" fill="#5E6253" transform="translate(0,0)"/>
<path d="" fill="#5E6253" transform="translate(0,0)"/>
<path d="" fill="#5E6253" transform="translate(0,0)"/>
<path d="" fill="#5E6253" transform="translate(0,0)"/>
<path d="" fill="#5E6253" transform="translate(0,0)"/>
<path d="" fill="#5E6253" transform="translate(0,0)"/>
<path d="" fill="#5E6253" transform="translate(0,0)"/>
<path d="" fill="#5E6253" transform="translate(0,0)"/>
<path d="" fill="#5E6253" transform="translate(0,0)"/>
<path d="" fill="#5E6253" transform="translate(0,0)"/>
<path d="" fill="#5E6253" transform="translate(0,0)"/>
<path d="" fill="#5E6253" transform="translate(0,0)"/>
<path d="" fill="#5E6253" transform="translate(0,0)"/>
<path d="" fill="#5E6253" transform="translate(0,0)"/>
<path d="" fill="#5E6253" transform="translate(0,0)"/>
<path d="" fill="#5E6253" transform="translate(0,0)"/>
<path d="" fill="#5E6253" transform="translate(0,0)"/>
<path d="" fill="#5E6253" transform="translate(0,0)"/>
<path d="" fill="#5E6253" transform="translate(0,0)"/>
<path d="" fill="#5E6253" transform="translate(0,0)"/>
<path d="" fill="#5E6253" transform="translate(0,0)"/>
<path d="" fill="#5E6253" transform="translate(0,0)"/>
<path d="" fill="#5E6253" transform="translate(0,0)"/>
<path d="" fill="#5E6253" transform="translate(0,0)"/>
<path d="" fill="#5E6253" transform="translate(0,0)"/>
<path d="" fill="#5E6253" transform="translate(0,0)"/>
<path d="" fill="#5E6253" transform="translate(0,0)"/>
<path d="" fill="#5E6253" transform="translate(0,0)"/>
<path d="" fill="#5E6253" transform="translate(0,0)"/>
<path d="" fill="#5E6253" transform="translate(0,0)"/>
<path d="" fill="#5E6253" transform="translate(0,0)"/>
<path d="" fill="#5E6253" transform="translate(0,0)"/>
<path d="" fill="#5E6253" transform="translate(0,0)"/>
<path d="" fill="#5E6253" transform="translate(0,0)"/>
<path d="" fill="#5E6253" transform="translate(0,0)"/>
<path d="" fill="#5E6253" transform="translate(0,0)"/>
<path d="" fill="#5E6253" transform="translate(0,0)"/>
<path d="" fill="#5E6253" transform="translate(0,0)"/>
<path d="" fill="#5E6253" transform="translate(0,0)"/>
<path d="" fill="#5E6253" transform="translate(0,0)"/>
<path d="" fill="#5E6253" transform="translate(0,0)"/>
<path d="" fill="#5E6253" transform="translate(0,0)"/>
<path d="" fill="#5E6253" transform="translate(0,0)"/>
<path d="" fill="#5E6253" transform="translate(0,0)"/>
<path d="" fill="#5E6253" transform="translate(0,0)"/>
<path d="" fill="#5E6253" transform="translate(0,0)"/>
<path d="" fill="#5E6253" transform="translate(0,0)"/>
<path d="" fill="#5E6253" transform="translate(0,0)"/>
</svg>
